<svg width="152" height="65" viewBox="0 0 152 65" fill="none" xmlns="http://www.w3.org/2000/svg">
<g id="africa_fintech_foundry logo" clip-path="url(#clip0_20_3117)">
<path id="Vector" d="M32.7473 62.7637L26.2915 53.3952V28.9518V4.50842H44.3302L47.3963 9.95917H32.7473V13.8769H49.0997L52.6767 20.0091H32.7473V62.7637Z" fill="black"/>
<path id="Vector_2" d="M35.5512 63.6978V22.8168H61.1018L58.5467 28.9489H42.3647V32.3557H57.3544L55.14 38.4879H42.3647V59.269L35.5512 63.6978Z" fill="black"/>
<path id="Vector_3" fill-rule="evenodd" clip-rule="evenodd" d="M0.750885 17.7544L17.6143 1.0614L23.9167 4.46814V34.9585L17.6143 30.3594V24.0569L8.92704 19.1171L5.34998 22.8645L0.750885 17.7544ZM17.4439 11.1964V18.0099L12.3338 15.4549L17.4439 11.1964Z" fill="black"/>
<path id="Vector_4" d="M83.5283 13.2851H81.1807L80.5683 11.6373H76.3978L75.7853 13.2851H73.4376L77.1852 3.55872H79.7808L83.5283 13.2851ZM79.9996 9.8145L78.483 5.6294L76.9665 9.8145H79.9996ZM86.4974 13.2851H84.4268V3.55872H91.3096V5.38151H86.4974V7.42302H91.2075V9.24579H86.4974V13.2851ZM100.646 13.2851H98.2548L96.3445 9.82908H94.828V13.2851H92.7573V3.55872H97.307C98.3083 3.55872 99.1054 3.85037 99.6985 4.43366C100.291 5.01695 100.588 5.77037 100.588 6.69391C100.588 7.49108 100.374 8.13756 99.9464 8.63334C99.5283 9.12914 99.0277 9.44508 98.4444 9.58119L100.646 13.2851ZM97.0153 8.00632C97.4333 8.00632 97.7785 7.88966 98.0507 7.65634C98.3229 7.4133 98.459 7.08763 98.459 6.67933C98.459 6.29047 98.3229 5.97938 98.0507 5.74606C97.7785 5.50302 97.4333 5.38151 97.0153 5.38151H94.828V8.00632H97.0153ZM104.198 13.2851H102.127V3.55872H104.198V13.2851ZM110.854 13.4601C109.367 13.4601 108.127 12.9934 107.135 12.0602C106.154 11.1172 105.663 9.90686 105.663 8.4292C105.663 6.94181 106.154 5.73148 107.135 4.79821C108.127 3.86495 109.367 3.39832 110.854 3.39832C112.672 3.39832 114.023 4.19062 114.908 5.77523L113.129 6.65016C112.915 6.24186 112.599 5.90647 112.181 5.64399C111.773 5.37178 111.33 5.23568 110.854 5.23568C109.969 5.23568 109.235 5.53705 108.652 6.13978C108.078 6.74252 107.792 7.50566 107.792 8.4292C107.792 9.35273 108.078 10.1159 108.652 10.7186C109.235 11.3213 109.969 11.6227 110.854 11.6227C111.33 11.6227 111.773 11.4915 112.181 11.229C112.599 10.9568 112.915 10.6165 113.129 10.2082L114.908 11.0686C114.004 12.6629 112.652 13.4601 110.854 13.4601ZM125.111 13.2851H122.763L122.15 11.6373H117.98L117.367 13.2851H115.02L118.767 3.55872H121.363L125.111 13.2851ZM121.582 9.8145L120.065 5.6294L118.548 9.8145H121.582Z" fill="black"/>
<path id="Vector_5" d="M76.529 35.6928H74.4583V25.9664H81.3412V27.7892H76.529V29.8307H81.2391V31.6535H76.529V35.6928ZM84.8594 35.6928H82.7887V25.9664H84.8594V35.6928ZM95.4963 35.6928H93.4986L88.8614 29.3495V35.6928H86.7907V25.9664H88.9197L93.4256 32.0764V25.9664H95.4963V35.6928ZM101.745 35.6928H99.6596V27.7892H96.816V25.9664H104.574V27.7892H101.745V35.6928ZM112.784 35.6928H105.902V25.9664H112.784V27.7892H107.972V29.8307H112.682V31.6535H107.972V33.87H112.784V35.6928ZM119.128 35.8678C117.64 35.8678 116.401 35.4012 115.409 34.4679C114.427 33.5249 113.936 32.3146 113.936 30.8369C113.936 29.3495 114.427 28.1392 115.409 27.2059C116.401 26.2727 117.64 25.806 119.128 25.806C120.946 25.806 122.297 26.5983 123.182 28.1829L121.403 29.0579C121.189 28.6496 120.873 28.3142 120.455 28.0517C120.046 27.7795 119.604 27.6434 119.128 27.6434C118.243 27.6434 117.509 27.9448 116.926 28.5475C116.352 29.1502 116.065 29.9134 116.065 30.8369C116.065 31.7605 116.352 32.5236 116.926 33.1263C117.509 33.7291 118.243 34.0304 119.128 34.0304C119.604 34.0304 120.046 33.8992 120.455 33.6367C120.873 33.3645 121.189 33.0243 121.403 32.616L123.182 33.4763C122.277 35.0706 120.926 35.8678 119.128 35.8678ZM133.163 35.6928H131.078V31.5952H126.484V35.6928H124.414V25.9664H126.484V29.787H131.078V25.9664H133.163V35.6928Z" fill="black"/>
<path id="Vector_6" d="M76.529 58.1005H74.4583V48.3742H81.3412V50.1969H76.529V52.2385H81.2391V54.0612H76.529V58.1005ZM87.4113 58.2755C85.9336 58.2755 84.7135 57.804 83.7511 56.861C82.7984 55.9181 82.3221 54.7126 82.3221 53.2446C82.3221 51.7767 82.7984 50.5712 83.7511 49.6282C84.7135 48.6852 85.9336 48.2137 87.4113 48.2137C88.8792 48.2137 90.0895 48.6901 91.0423 49.6428C92.0047 50.5858 92.4859 51.7864 92.4859 53.2446C92.4859 54.7029 92.0047 55.9083 91.0423 56.861C90.0895 57.804 88.8792 58.2755 87.4113 58.2755ZM85.2677 55.5341C85.8121 56.1368 86.5266 56.4382 87.4113 56.4382C88.2959 56.4382 89.0056 56.1368 89.5403 55.5341C90.0847 54.9313 90.3569 54.1682 90.3569 53.2446C90.3569 52.3211 90.0847 51.5579 89.5403 50.9552C89.0056 50.3525 88.2959 50.0511 87.4113 50.0511C86.5169 50.0511 85.7975 50.3525 85.2531 50.9552C84.7184 51.5579 84.4511 52.3211 84.4511 53.2446C84.4511 54.1682 84.7233 54.9313 85.2677 55.5341ZM101.595 57.1818C100.856 57.911 99.7673 58.2755 98.3285 58.2755C96.8898 58.2755 95.7961 57.911 95.0475 57.1818C94.3087 56.443 93.9393 55.4514 93.9393 54.2071V48.3742H96.0391V54.1487C96.0391 54.8487 96.2384 55.4077 96.637 55.8257C97.0356 56.234 97.5994 56.4382 98.3285 56.4382C99.0576 56.4382 99.6166 56.234 100.005 55.8257C100.404 55.4077 100.603 54.8487 100.603 54.1487V48.3742H102.718V54.2071C102.718 55.4514 102.344 56.443 101.595 57.1818ZM113.354 58.1005H111.356L106.719 51.7572V58.1005H104.648V48.3742H106.777L111.283 54.4841V48.3742H113.354V58.1005ZM119.121 58.1005H115.272V48.3742H119.107C120.633 48.3742 121.872 48.8213 122.825 49.7157C123.788 50.6101 124.269 51.7815 124.269 53.23C124.269 54.698 123.792 55.8792 122.84 56.7735C121.887 57.6582 120.648 58.1005 119.121 58.1005ZM119.107 56.2777C120.04 56.2777 120.779 55.9861 121.323 55.4028C121.877 54.8195 122.154 54.0953 122.154 53.23C122.154 52.3454 121.887 51.6211 121.352 51.0573C120.827 50.4837 120.084 50.1969 119.121 50.1969H117.342V56.2777H119.107ZM133.627 58.1005H131.236L129.326 54.6445H127.809V58.1005H125.738V48.3742H130.288C131.289 48.3742 132.087 48.6658 132.68 49.2491C133.273 49.8324 133.569 50.5858 133.569 51.5093C133.569 52.3065 133.355 52.953 132.927 53.4488C132.509 53.9446 132.009 54.2605 131.425 54.3966L133.627 58.1005ZM129.996 52.8217C130.414 52.8217 130.76 52.7051 131.032 52.4718C131.304 52.2287 131.44 51.9031 131.44 51.4948C131.44 51.1059 131.304 50.7948 131.032 50.5615C130.76 50.3185 130.414 50.1969 129.996 50.1969H127.809V52.8217H129.996ZM139.635 58.1005H137.565V54.1196L133.832 48.3742H136.194L138.6 52.2676L141.006 48.3742H143.354L139.635 54.1196V58.1005Z" fill="black"/>
</g>
<defs>
<clipPath id="clip0_20_3117">
<rect width="150.684" height="64" fill="white" transform="translate(0.341309 0.5)"/>
</clipPath>
</defs>
</svg>
