<svg width="152" height="101" viewBox="0 0 152 101" fill="none" xmlns="http://www.w3.org/2000/svg">
<g id="Ainol logo">
<path id="Vector" d="M23.8798 59.6891C23.8641 59.6637 23.813 59.653 23.7664 59.6651C23.7197 59.6773 23.5708 59.6487 23.4356 59.6017C23.3253 59.563 23.2145 59.5259 23.1032 59.4904C23.0555 59.4761 22.9781 59.4382 22.9312 59.4064C22.8841 59.3744 22.8029 59.3484 22.7507 59.3484C22.6986 59.3484 22.5909 59.281 22.5114 59.1986C22.1705 58.8452 22.0854 58.7432 22.0854 58.6872C22.0854 58.6546 22.0463 58.5828 21.9983 58.5276C21.9465 58.4681 21.9212 58.3953 21.9362 58.3484C21.9501 58.3048 21.9427 58.2693 21.92 58.2693C21.8793 58.2693 21.8174 58.1056 21.802 57.9571C21.7977 57.916 21.7721 57.8557 21.745 57.8232C21.7178 57.7907 21.6965 57.7174 21.6977 57.6606C21.6989 57.6037 21.691 57.4502 21.6803 57.3197C21.6531 56.9894 21.7492 56.6055 21.976 56.1377C22.2179 55.6386 22.3959 55.405 22.7672 55.0992C22.9282 54.9666 23.0907 54.8293 23.1284 54.7941C23.1661 54.7588 23.2109 54.73 23.2277 54.73C23.2447 54.73 23.311 54.6813 23.3753 54.622C23.4394 54.5627 23.5256 54.5142 23.5667 54.5142C23.6078 54.5142 23.7054 54.4585 23.7837 54.3905C23.8619 54.3224 23.9697 54.2532 24.0234 54.2365C24.0769 54.2198 24.1208 54.1883 24.1208 54.1666C24.1208 54.1447 24.1886 54.0986 24.2715 54.0642C24.5317 53.9558 24.839 53.6327 24.9012 53.4017C24.9317 53.2895 25.0023 53.1566 25.0583 53.1064C25.1143 53.0562 25.1601 52.9845 25.1601 52.9471C25.1601 52.9097 25.1779 52.8681 25.1996 52.8548C25.2214 52.8413 25.252 52.7544 25.2678 52.6614C25.2836 52.5684 25.3243 52.4816 25.3582 52.4687C25.396 52.4542 25.4199 52.3841 25.4199 52.2875C25.4199 52.1637 25.3897 52.1039 25.2792 52.0075C25.079 51.8332 24.4756 51.4825 24.4273 51.5123C24.4168 51.519 24.4041 51.5212 24.3919 51.5186C24.3798 51.516 24.3691 51.5087 24.3623 51.4983C24.3235 51.4357 23.7413 51.3084 23.6113 51.3338L23.1465 51.4258C22.3672 51.58 21.2493 51.5564 20.7647 51.3754C20.3357 51.2152 19.7474 50.8719 19.7466 50.7813C19.7465 50.7572 19.6831 50.6694 19.606 50.5864C19.5287 50.5034 19.4588 50.397 19.4506 50.3501C19.4424 50.3033 19.3985 50.2392 19.3532 50.2075C19.3078 50.1758 19.2707 50.1148 19.2707 50.0718C19.2707 50.0289 19.2306 49.9429 19.1815 49.8808C19.1325 49.8187 19.0526 49.6267 19.0038 49.4541C18.9308 49.1952 18.92 49.0688 18.9419 48.7304C18.965 48.3775 18.9942 48.2608 19.1521 47.8937C19.2992 47.5517 19.3824 47.4212 19.5719 47.236C19.7826 47.0301 20.1024 46.8312 20.2229 46.8312C20.2469 46.8312 20.2667 46.8156 20.2667 46.7965C20.2667 46.7773 20.3495 46.7275 20.4507 46.6857C20.5519 46.644 20.6834 46.5846 20.7431 46.5536C20.9445 46.4487 21.6435 46.3813 21.9339 46.4386C22.0768 46.4669 22.2366 46.4894 22.289 46.4887C22.3414 46.488 22.3961 46.5064 22.4106 46.5298C22.4252 46.5532 22.4931 46.5723 22.5618 46.5723C22.6304 46.5723 22.6987 46.5917 22.7133 46.6155C22.7281 46.6392 22.7702 46.6586 22.8068 46.6586C22.9329 46.6586 23.4932 46.9532 23.6201 47.0864C23.69 47.1597 23.772 47.2198 23.8021 47.2198C23.8323 47.2198 23.9543 47.3168 24.0734 47.4355C24.1925 47.5542 24.3039 47.6514 24.3211 47.6514C24.3382 47.6514 24.4219 47.7214 24.5071 47.8069C24.5924 47.8925 24.7953 48.0472 24.9579 48.1508C25.2441 48.3328 25.2699 48.3404 25.7476 48.3817C26.0191 48.4052 26.2793 48.4447 26.3258 48.4695C26.4345 48.5275 26.5458 48.5274 26.5458 48.469C26.5458 48.444 26.5885 48.3324 26.6405 48.2208C26.6926 48.1094 26.7418 47.9798 26.7501 47.9328C26.7582 47.8859 26.7838 47.8286 26.807 47.8054C26.83 47.7825 26.8494 47.7141 26.85 47.6535C26.8506 47.593 26.8946 47.4366 26.948 47.3061C27.0014 47.1755 27.0437 47.02 27.0421 46.9607C27.0338 46.6405 26.7288 45.7522 26.6273 45.7522C26.6064 45.7522 26.5892 45.7005 26.5892 45.6373C26.5892 45.5741 26.5427 45.443 26.486 45.346C26.3224 45.0659 26.156 44.3494 26.1574 43.9315C26.1597 43.2841 26.4859 42.4096 26.872 42.0154C27.0922 41.7907 27.6351 41.4875 27.9533 41.4117C28.0412 41.3885 28.1268 41.3571 28.2087 41.3176C28.3144 41.2643 28.4179 41.262 28.8699 41.3021C29.3597 41.3455 29.438 41.3651 29.7797 41.5285C30.05 41.6576 30.219 41.7745 30.3886 41.9492C30.5922 42.1592 30.833 42.5549 30.833 42.6797C30.833 42.702 30.8623 42.7445 30.8981 42.774C30.9337 42.8036 30.963 42.8843 30.963 42.9536C30.963 43.0226 30.9935 43.1256 31.0308 43.1823C31.0679 43.239 31.1079 43.3792 31.1192 43.4938C31.1558 43.8621 31.1418 44.4259 31.095 44.4724C31.07 44.4974 31.0496 44.5807 31.0496 44.6577C31.0496 44.7346 31.031 44.8091 31.0081 44.8231C30.9853 44.8371 30.9779 44.8773 30.9914 44.9125C31.0048 44.9476 30.9897 45.0079 30.9577 45.0465C30.9256 45.0849 30.8984 45.1381 30.8974 45.1646C30.8935 45.2629 30.8247 45.519 30.7684 45.6443C30.7364 45.7155 30.6969 45.8459 30.6805 45.9342C30.6642 46.0223 30.6236 46.1169 30.5904 46.1445C30.5572 46.1719 30.5296 46.226 30.5293 46.2647C30.5285 46.3489 30.4282 46.6449 30.3863 46.6866C30.3701 46.7028 30.3567 46.7469 30.3567 46.7846C30.3567 46.8891 30.6987 47.9552 30.7871 48.1261C30.8301 48.2093 30.8777 48.3306 30.8933 48.3959C30.9142 48.4851 30.9474 48.5147 31.0262 48.5147C31.0839 48.5147 31.1431 48.534 31.1579 48.5577C31.1725 48.5815 31.2325 48.6009 31.2909 48.6009C31.3494 48.6009 31.4324 48.6229 31.4757 48.6497C31.5578 48.7009 31.5816 48.6931 32.1275 48.4385C32.256 48.3786 32.5288 48.1807 32.7338 47.9986C33.2002 47.5846 33.7161 47.1766 33.7733 47.1766C33.7972 47.1766 33.8324 47.1516 33.8514 47.121C33.9032 47.0378 34.5728 46.6276 34.7381 46.5778C34.8462 46.5442 34.9536 46.508 35.06 46.4693C35.3947 46.3469 36.2951 46.3778 36.7146 46.5263C37.1995 46.6979 37.5618 46.9414 37.8337 47.2781C38.0395 47.533 38.2547 47.9317 38.3016 48.1451C38.3072 48.1702 38.3229 48.22 38.3365 48.2556C38.3933 48.4041 38.3963 48.743 38.3435 49.0396C38.2575 49.5217 38.2328 49.6085 38.1567 49.6953C38.1182 49.7394 38.0914 49.783 38.0975 49.7924C38.1381 49.8567 38.0759 49.9582 37.8485 50.198C37.7056 50.3485 37.5886 50.4952 37.5886 50.5239C37.5886 50.5525 37.5317 50.5994 37.4623 50.6281C37.3928 50.6568 37.2763 50.7332 37.2035 50.7981C37.1306 50.8629 36.9781 50.9561 36.8642 51.0049C36.588 51.1237 36.097 51.2404 36.011 51.2075C35.973 51.1929 35.9169 51.2017 35.8862 51.2271C35.8202 51.2817 34.1918 51.2552 33.7459 51.1923C33.4944 51.1569 33.4319 51.1631 33.2395 51.2433C33.1186 51.2935 32.9908 51.3573 32.955 51.385C32.9192 51.4128 32.8219 51.4617 32.7384 51.4939C32.6551 51.526 32.5285 51.5946 32.457 51.6464C32.3856 51.6981 32.2734 51.7531 32.208 51.7685C32.1425 51.784 32.0889 51.8166 32.0889 51.8412C32.0889 51.8657 32.0304 51.906 31.9588 51.9309C31.7938 51.9883 31.7462 52.1481 31.8447 52.3143C31.8837 52.3803 31.9158 52.4699 31.9159 52.5138C31.916 52.5576 31.9461 52.6505 31.9825 52.7201C32.0189 52.7898 32.0397 52.8704 32.0285 52.8994C32.0173 52.9283 32.0355 52.9878 32.0688 53.0317C32.1022 53.0755 32.1301 53.1632 32.1309 53.2265C32.1317 53.2898 32.1479 53.3481 32.1672 53.356C32.1864 53.3639 32.2684 53.4675 32.3494 53.5862C32.5452 53.8731 32.7524 54.0826 32.8402 54.0826C32.8795 54.0826 32.9117 54.1019 32.9117 54.1257C32.9117 54.1494 32.9555 54.1694 33.0092 54.1701C33.0626 54.1708 33.1943 54.219 33.3014 54.2774C33.4086 54.3356 33.5384 54.4055 33.59 54.4326C33.6416 54.4594 33.6928 54.516 33.7039 54.5581C33.7149 54.6003 33.7994 54.6679 33.8917 54.7087C34.2596 54.8708 34.3556 54.9331 34.5711 55.149C35.0963 55.6751 35.3274 56.0138 35.4848 56.488C35.5774 56.7672 35.5591 57.3664 35.4457 57.7729C35.426 57.8441 35.3834 57.9428 35.3514 57.9922C35.3193 58.0416 35.3049 58.0937 35.3193 58.108C35.3338 58.1225 35.3143 58.1787 35.2762 58.233C35.2381 58.2872 35.2068 58.3631 35.2068 58.4015C35.2068 58.4398 35.1585 58.4932 35.0995 58.52C35.0401 58.547 35.0016 58.5938 35.0135 58.6246C35.0411 58.6964 34.811 58.9479 34.6677 59.0021C34.6069 59.0253 34.5573 59.0706 34.5573 59.103C34.5573 59.1354 34.5134 59.1849 34.4597 59.2129C34.4063 59.2409 34.2959 59.3122 34.2145 59.3713C33.9673 59.551 33.5509 59.6552 33.0632 59.6592C32.6228 59.6627 32.1632 59.5909 32.0456 59.4999C32.0098 59.4723 31.8345 59.3788 31.6559 59.2923C31.1252 59.0353 30.7167 58.5692 30.5289 58.0066C30.4911 57.8925 30.4526 57.7786 30.4133 57.665C30.4005 57.6294 30.3834 57.5377 30.3755 57.4611C30.3675 57.3847 30.337 57.2779 30.3076 57.2238C30.2528 57.1231 30.2185 56.9644 30.1371 56.4349C30.1116 56.2687 30.0729 56.0939 30.0512 56.0464C30.0296 55.9989 30.0037 55.9116 29.9936 55.8522C29.9316 55.4867 29.853 55.3208 29.6055 55.0321C29.3108 54.6882 29.186 54.5573 29.1527 54.5573C29.1348 54.5573 29.0688 54.499 29.0061 54.4278C28.9434 54.3566 28.8748 54.2983 28.8537 54.2983C28.7594 54.2983 28.0072 54.8604 27.7646 55.112C27.6728 55.2073 27.5539 55.3982 27.5006 55.5364C27.4471 55.6744 27.3859 55.8264 27.3643 55.8738C27.3249 55.9603 27.2884 56.1339 27.1728 56.7841C27.1386 56.9764 27.0812 57.19 27.045 57.2589C27.009 57.3281 26.9793 57.4072 26.9792 57.435C26.979 57.4626 26.9302 57.582 26.8707 57.7002C26.8111 57.8183 26.7624 57.9437 26.7624 57.9789C26.7624 58.0141 26.7331 58.0671 26.6973 58.0967C26.6617 58.1262 26.6325 58.1773 26.6325 58.2102C26.6325 58.243 26.5837 58.3121 26.5242 58.3638C26.4646 58.4153 26.4159 58.4822 26.4159 58.5123C26.4159 58.5425 26.3898 58.5826 26.3578 58.6016C26.3259 58.6206 26.2664 58.6878 26.2256 58.7508C26.1849 58.8138 26.1038 58.8773 26.0455 58.8919C25.9873 58.9064 25.9395 58.9478 25.9395 58.9837C25.9395 59.0196 25.9084 59.0608 25.8703 59.0754C25.8322 59.09 25.7553 59.1477 25.699 59.2036C25.643 59.2594 25.5748 59.3052 25.5477 59.3052C25.5205 59.3052 25.4458 59.3425 25.3817 59.3879C25.0982 59.5892 23.9595 59.8174 23.8798 59.6891ZM47.592 59.6451C47.3419 59.6251 47.0953 59.5866 47.044 59.5597C46.9927 59.5329 46.9281 59.5248 46.9006 59.5417C46.8729 59.5587 46.8143 59.54 46.7702 59.5003C46.7261 59.4605 46.6543 59.4325 46.6106 59.438C46.5668 59.4435 46.5018 59.438 46.4661 59.4248C46.226 59.3393 46.0353 59.2986 45.994 59.3241C45.9676 59.3405 45.9341 59.3229 45.9198 59.2863C45.9047 59.2472 45.8425 59.2189 45.7711 59.2189C45.7037 59.2189 45.6363 59.1994 45.6217 59.1757C45.6069 59.152 45.5496 59.1325 45.4941 59.1325C45.4386 59.1325 45.339 59.1044 45.2724 59.07C45.2059 59.0356 45.1362 59.0169 45.1175 59.0284C45.085 59.0484 45.0459 59.0208 44.8156 58.8141C44.6998 58.7104 44.5315 58.6154 44.4583 58.6129C44.3548 58.6092 43.5214 57.9363 43.5214 57.8564C43.5214 57.8236 43.4678 57.7675 43.4023 57.7318C43.2452 57.6461 43.0883 57.5101 43.0883 57.4597C43.0883 57.4376 43.0473 57.3824 42.9971 57.3372C42.9469 57.292 42.8704 57.1857 42.827 57.101C42.7836 57.0164 42.7175 56.9217 42.6801 56.8908C42.6426 56.8597 42.6119 56.8009 42.6119 56.76C42.6119 56.7191 42.5714 56.6491 42.5217 56.6044C42.4721 56.5595 42.4044 56.4642 42.3713 56.3927C42.338 56.3209 42.2503 56.1554 42.1763 56.0249C42.1022 55.8943 42.0342 55.7318 42.0251 55.6638C42.016 55.5958 41.9818 55.5181 41.949 55.4912C41.8161 55.3816 41.5883 54.5353 41.5556 54.0302C41.5438 53.8471 41.5109 53.6541 41.4825 53.6013C41.3987 53.4452 41.3876 52.8059 41.4601 52.3129C41.4967 52.0637 41.5363 51.7238 41.5482 51.5576C41.5659 51.3064 41.6104 50.98 41.6393 50.8885C41.643 50.8766 41.6612 50.7848 41.6797 50.6844C41.6983 50.5838 41.7381 50.4812 41.7685 50.4562C41.7987 50.4311 41.8145 50.376 41.8033 50.3336C41.7922 50.2913 41.8138 50.2313 41.8511 50.2004C41.8885 50.1695 41.9191 50.0883 41.9191 50.02C41.9191 49.936 41.9411 49.8958 41.9869 49.8958C42.0361 49.8958 42.0469 49.8709 42.0261 49.8056C42.0056 49.7412 42.0237 49.6971 42.09 49.6509C42.1509 49.6084 42.1736 49.559 42.1569 49.5063C42.1397 49.4521 42.1609 49.4106 42.2222 49.3778C42.2823 49.3458 42.3047 49.3031 42.2883 49.2518C42.2744 49.2084 42.2926 49.1502 42.3294 49.1198C42.3658 49.0897 42.3954 49.0389 42.3954 49.007C42.3954 48.9271 42.5694 48.6009 42.612 48.6009C42.6433 48.6009 42.8142 48.3536 42.8709 48.2265C42.8833 48.1987 42.9366 48.1306 42.9893 48.0755C43.0421 48.0203 43.2158 47.8343 43.3753 47.6621C43.5349 47.4901 43.692 47.3493 43.7245 47.3493C43.7568 47.3493 43.8018 47.3006 43.8244 47.2413C43.8472 47.1819 43.8878 47.1334 43.915 47.1334C43.9421 47.1334 44.0768 47.0363 44.2142 46.9176C44.3517 46.7989 44.4949 46.7018 44.5326 46.7018C44.5701 46.7018 44.6215 46.6635 44.6464 46.6169C44.6715 46.5702 44.7696 46.5113 44.8645 46.4858C44.9631 46.4594 45.037 46.4132 45.037 46.3781C45.037 46.3418 45.1125 46.2978 45.221 46.2706C45.3223 46.2451 45.4569 46.1959 45.5201 46.161C45.5833 46.1261 45.6688 46.0975 45.7102 46.0975C45.7516 46.0975 45.8654 46.0598 45.9634 46.0137C46.0612 45.9676 46.2334 45.918 46.346 45.9034C46.4586 45.8887 46.5621 45.8584 46.5759 45.8361C46.5898 45.8136 46.7548 45.7953 46.9424 45.7953C47.1302 45.7953 47.2959 45.7759 47.3107 45.752C47.3276 45.7247 47.6048 45.7147 48.0602 45.7251C48.6603 45.7388 48.849 45.7598 49.1726 45.8484C49.387 45.9071 49.5916 45.9667 49.6274 45.9808C49.6631 45.9949 49.8288 46.0471 49.9954 46.0969C50.1621 46.1466 50.3765 46.2393 50.4718 46.3028C50.6687 46.4341 50.8602 46.5456 51.0016 46.6112C51.0551 46.6359 51.2779 46.7849 51.4972 46.9424C52.032 47.3266 52.0296 47.326 51.9939 47.0663C51.9779 46.9503 51.9526 46.6967 51.9377 46.5028C51.9121 46.1712 51.916 46.1471 52.0043 46.1C52.0559 46.0726 52.1999 46.0508 52.3242 46.0518C52.4486 46.0529 53.154 46.0553 53.8917 46.0572C54.6295 46.0592 55.2625 46.0773 55.2985 46.0973C55.3546 46.1286 55.3648 46.3276 55.3691 47.4861C55.3718 48.2299 55.3887 49.0683 55.4065 49.3494C55.4262 49.6589 55.4205 50.0249 55.3923 50.2774C55.3235 50.8926 55.3029 51.5467 55.3498 51.6339C55.3724 51.6759 55.3797 51.7283 55.3661 51.7502C55.3527 51.7722 55.3368 52.8643 55.3308 54.1772C55.325 55.4902 55.3056 56.5872 55.2878 56.6154C55.2701 56.6434 55.2746 56.678 55.2979 56.6924C55.325 56.7092 55.3228 56.7568 55.2917 56.8249C55.256 56.903 55.2559 56.9592 55.2911 57.0363C55.3197 57.0986 55.3226 57.1469 55.2985 57.155C55.2741 57.1632 55.2718 57.2639 55.2923 57.406C55.3314 57.677 55.3271 57.9445 55.2812 58.0885C55.2622 58.1485 55.2713 58.213 55.3048 58.253C55.3494 58.3067 55.3485 58.326 55.3003 58.3557C55.2564 58.3828 55.2532 58.4071 55.2887 58.4495C55.3165 58.4832 55.3278 58.6043 55.3157 58.7441C55.3054 58.8606 55.2973 58.9773 55.2913 59.0942C55.2874 59.2051 55.2806 59.2076 54.8715 59.2413C54.643 59.26 54.3291 59.2722 54.1744 59.2681C54.0196 59.2641 53.4613 59.2605 52.9338 59.26L51.9747 59.2589L51.9562 59.0768C51.9461 58.9766 51.9393 58.6761 51.941 58.409C51.9428 58.142 51.934 57.9234 51.9217 57.9234C51.9094 57.9234 51.8035 58.0024 51.6862 58.099C51.5691 58.1955 51.4329 58.2957 51.3839 58.3216C51.3347 58.3475 51.2691 58.4046 51.2381 58.4483C51.2069 58.492 51.1532 58.5277 51.119 58.5277C51.0846 58.5277 51.0564 58.5538 51.0564 58.5857C51.0564 58.6175 50.9805 58.6663 50.8877 58.6939C50.7948 58.7217 50.7078 58.7734 50.6942 58.8087C50.6806 58.8441 50.6314 58.8731 50.5847 58.8731C50.5382 58.8731 50.445 58.918 50.3777 58.973C50.1618 59.1493 49.959 59.251 49.6706 59.3278C49.5158 59.369 49.3468 59.4288 49.295 59.4605C49.2225 59.505 48.0719 59.7147 48.0512 59.6871C48.0488 59.6838 47.8421 59.6648 47.592 59.6446V59.6451ZM48.2646 56.5407C48.2839 56.5094 48.3107 56.5104 48.3509 56.5437C48.3903 56.5762 48.4349 56.5783 48.4882 56.5498C48.5317 56.5267 48.6644 56.5116 48.7834 56.5165C48.9021 56.5211 49.1141 56.4903 49.2541 56.4477C49.3941 56.4051 49.5525 56.3701 49.6061 56.3701C49.6596 56.3701 49.7276 56.3411 49.7572 56.3055C49.7869 56.2698 49.8429 56.2405 49.8816 56.2401C49.9204 56.2398 50.037 56.1913 50.1406 56.1322C50.2443 56.0731 50.3527 56.0249 50.3816 56.0249C50.4583 56.0249 51.4785 55.0193 51.4592 54.9626C51.4502 54.9362 51.4924 54.8824 51.5528 54.8429C51.6132 54.8035 51.6626 54.7441 51.6626 54.7109C51.6626 54.6777 51.6952 54.5859 51.7349 54.5069C51.8692 54.2399 51.8792 54.2133 51.8792 54.125C51.8792 54.0763 51.909 54.0254 51.9454 54.0114C51.9883 53.9949 52.0023 53.9562 51.9849 53.9017C51.9688 53.8513 51.9868 53.7857 52.0297 53.7384C52.077 53.6863 52.0857 53.6498 52.0551 53.631C52.0257 53.6129 52.0232 53.5759 52.048 53.5296C52.0695 53.4895 52.0928 53.2236 52.0996 52.9387C52.1064 52.6538 52.1298 52.367 52.1517 52.3012C52.179 52.2191 52.1753 52.1622 52.1398 52.1196C52.1115 52.0856 52.0992 52.0403 52.1123 52.0188C52.1482 51.9611 51.8892 51.034 51.7606 50.76C51.699 50.6289 51.6128 50.4753 51.5691 50.4187C51.5253 50.3621 51.4895 50.2881 51.4895 50.2541C51.4895 50.2202 51.3361 50.0431 51.1488 49.8607C50.9614 49.6782 50.7963 49.4945 50.7817 49.4524C50.7671 49.4103 50.7207 49.3644 50.6785 49.3501C50.4922 49.2876 50.1903 49.1441 50.1903 49.1181C50.1903 49.0795 49.9321 49.0013 49.5466 48.9235C49.3714 48.888 49.2057 48.8447 49.1787 48.8271C49.1516 48.8095 49.0514 48.7931 48.9562 48.7906C48.8609 48.7881 48.6334 48.773 48.4505 48.757C48.2525 48.7399 48.1078 48.7449 48.0926 48.7694C48.0785 48.7921 47.9553 48.8243 47.8186 48.8411C47.6821 48.8578 47.5216 48.8906 47.4621 48.9141C47.4025 48.9375 47.3116 48.9621 47.2597 48.9689C47.0276 48.999 46.9026 49.0436 46.8319 49.1213C46.7901 49.1675 46.7105 49.2052 46.6553 49.2052C46.597 49.2052 46.5261 49.2487 46.4868 49.3087C46.4493 49.3654 46.3802 49.4221 46.3329 49.4344C46.2857 49.4467 46.2525 49.4811 46.2592 49.5109C46.2658 49.5406 46.2069 49.5842 46.1285 49.6077C46.037 49.6351 45.9937 49.6713 46.0079 49.7082C46.0202 49.7399 45.9723 49.8085 45.9017 49.8605C45.831 49.9126 45.7732 49.9786 45.7732 50.0072C45.7732 50.0358 45.7447 50.0701 45.7098 50.0834C45.675 50.0967 45.5883 50.2226 45.5171 50.3632C45.446 50.5037 45.3566 50.6306 45.3186 50.6451C45.2806 50.6597 45.2538 50.6961 45.259 50.7262C45.2642 50.7561 45.2432 50.8389 45.2123 50.9101C44.9984 51.4033 44.9011 51.9625 44.8858 52.7877C44.8803 53.0844 44.8893 53.3466 44.9058 53.3704C44.9224 53.3941 44.9604 53.5302 44.9903 53.6725C45.0202 53.815 45.0624 53.9652 45.0841 54.0064C45.1059 54.0476 45.1236 54.1399 45.1236 54.2114C45.1236 54.2934 45.1457 54.3415 45.1835 54.3415C45.2533 54.3415 45.3074 54.5025 45.2495 54.5383C45.1823 54.5797 45.206 54.6194 45.345 54.6981C45.4549 54.7607 45.4743 54.7934 45.4525 54.8803C45.4307 54.9667 45.4489 54.9981 45.5504 55.0505C45.6318 55.0923 45.6842 55.1603 45.7015 55.246C45.7159 55.3183 45.7526 55.3778 45.7829 55.3783C45.8535 55.3793 46.1629 55.647 46.1629 55.707C46.1629 55.7318 46.263 55.8065 46.3854 55.8728C46.5077 55.9393 46.6441 56.0297 46.6886 56.074C46.7329 56.1182 46.7968 56.1543 46.8305 56.1543C46.8642 56.1543 46.899 56.1753 46.9074 56.2009C46.916 56.2266 47.0298 56.2738 47.1602 56.3063C47.2905 56.3385 47.4848 56.3983 47.592 56.4392C47.6992 56.48 47.8746 56.5272 47.9818 56.5439C48.0889 56.5607 48.1901 56.577 48.2066 56.5802C48.223 56.5834 48.2491 56.5656 48.2646 56.5408V56.5407ZM85.1869 59.4761C84.9693 59.4471 84.7527 59.4113 84.5374 59.3688C84.3553 59.3317 84.1489 59.2923 84.079 59.2816C84.0089 59.2707 83.8712 59.2231 83.7729 59.1756C83.6746 59.1281 83.5705 59.0894 83.5415 59.0894C83.5124 59.0894 83.4416 59.0586 83.3838 59.0209C83.3262 58.9832 83.2587 58.9649 83.2338 58.9803C83.2089 58.9956 83.1885 58.9915 83.1885 58.9711C83.1885 58.9288 82.825 58.7441 82.7418 58.7441C82.6617 58.7441 82.3555 58.5816 82.3162 58.5181C82.2976 58.488 82.2621 58.4612 82.2374 58.4581L82.1493 58.4474C82.1254 58.4444 82.1059 58.4141 82.1059 58.3802C82.1059 58.3462 82.0621 58.3048 82.0085 58.2884C81.9078 58.2573 81.848 58.2114 81.6149 57.9859C81.5396 57.913 81.3855 57.7965 81.2725 57.7269C81.1593 57.6572 81.0668 57.5736 81.0668 57.541C81.0667 57.5084 80.979 57.4047 80.8717 57.3107C80.7646 57.2167 80.6769 57.1124 80.6769 57.0791C80.6769 57.0457 80.6091 56.9745 80.5263 56.9209C80.4208 56.8525 80.3828 56.8008 80.3993 56.7479C80.4156 56.6957 80.3911 56.6603 80.3207 56.6337C80.1892 56.5839 80.0981 56.4736 80.1267 56.3991C80.1539 56.3286 80.1209 56.2782 80.0056 56.2139C79.9514 56.1836 79.9191 56.1207 79.9191 56.0451C79.9191 55.976 79.8913 55.9155 79.8541 55.9035C79.7582 55.8724 79.7247 55.8008 79.753 55.6881C79.7724 55.6111 79.7573 55.5825 79.6877 55.5644C79.5857 55.5378 79.5352 55.4254 79.5768 55.3177C79.5949 55.2706 79.5637 55.208 79.4872 55.1373C79.3889 55.0465 79.3788 55.0181 79.4251 54.9624C79.4794 54.8973 79.4484 54.8502 79.3214 54.8055C79.2636 54.7851 79.2049 54.459 79.2321 54.3091C79.2521 54.1985 79.2428 54.169 79.1877 54.169C79.1494 54.169 79.1171 54.1543 79.1161 54.1366C79.1149 54.1187 79.098 54.0212 79.0784 53.9198C79.0585 53.8174 79.0593 53.7251 79.0803 53.7122C79.1432 53.6734 79.1224 53.5559 79.0422 53.4968C78.9814 53.452 78.9771 53.43 79.0204 53.3862C79.0885 53.3174 79.0914 53.247 79.0245 53.2882C78.9879 53.3108 78.9817 53.2653 79.0017 53.12C79.0182 53.0007 79.0114 52.91 78.9849 52.8936C78.957 52.8765 78.9556 52.8477 78.9809 52.8162C79.024 52.7628 79.0152 52.0666 78.9708 52.0223C78.9563 52.0078 78.975 51.9495 79.0124 51.8926C79.0682 51.8078 79.0704 51.7772 79.025 51.7226C78.9792 51.6676 78.9828 51.6465 79.0458 51.6007C79.1005 51.5607 79.114 51.5136 79.0935 51.4327C79.0757 51.3621 79.0831 51.3202 79.1133 51.3202C79.1735 51.3202 79.1766 51.1621 79.1172 51.1256C79.0929 51.1105 79.0847 51.08 79.0986 51.0575C79.1126 51.035 79.14 51.0266 79.1596 51.0386C79.2145 51.0724 79.2549 50.9276 79.2068 50.8698C79.1775 50.8346 79.192 50.7951 79.2533 50.7427C79.3391 50.6695 79.3395 50.6635 79.2651 50.5815C79.1904 50.4993 79.191 50.4955 79.2798 50.4724C79.382 50.4458 79.4401 50.3442 79.3759 50.3046C79.313 50.2659 79.3264 50.198 79.3968 50.198C79.4867 50.198 79.5234 50.1177 79.4653 50.048C79.4263 50.0012 79.4337 49.9785 79.4991 49.9435C79.5574 49.9124 79.5768 49.8671 79.5628 49.7945C79.5518 49.737 79.5641 49.6769 79.5901 49.6609C79.6163 49.6448 79.6375 49.5989 79.6374 49.5588C79.6374 49.4329 79.8273 49.1192 79.8971 49.1302C79.9429 49.1374 79.9601 49.1063 79.9547 49.026C79.9494 48.9454 79.9719 48.9051 80.0306 48.8898C80.0861 48.8752 80.1139 48.8302 80.1139 48.7547C80.1139 48.6924 80.1432 48.6302 80.1789 48.6166C80.2145 48.6029 80.2439 48.5573 80.2439 48.5152C80.2439 48.4234 80.3528 48.324 80.413 48.361C80.4649 48.3931 80.5431 48.2557 80.5158 48.1801C80.5051 48.1504 80.5273 48.1261 80.565 48.1261C80.6032 48.1261 80.6335 48.0902 80.6335 48.045C80.6335 47.9564 80.749 47.8384 80.7931 47.8822C80.836 47.9251 80.9367 47.822 80.9367 47.7353C80.9367 47.6924 80.971 47.6463 81.0129 47.6331C81.0547 47.6198 81.1084 47.5657 81.132 47.5129C81.1556 47.4601 81.2194 47.4063 81.2737 47.3938C81.3282 47.3811 81.397 47.3223 81.4268 47.263C81.4565 47.2036 81.5104 47.1547 81.5465 47.1542C81.5825 47.1538 81.6979 47.0713 81.8027 46.9708C81.9076 46.8703 82.0189 46.7882 82.05 46.7882C82.0811 46.7882 82.1488 46.7395 82.2006 46.6802C82.2524 46.6208 82.3395 46.5723 82.3942 46.5723C82.4525 46.5723 82.5231 46.5277 82.5646 46.4643C82.6055 46.4022 82.6769 46.3565 82.733 46.3565C82.7866 46.3565 82.8805 46.3173 82.9415 46.2694C83.0026 46.2215 83.1413 46.1658 83.25 46.1455C83.3586 46.1254 83.472 46.0894 83.5021 46.0656C83.5321 46.0419 83.6283 46.0096 83.7159 45.9938C83.8035 45.9782 83.8824 45.9434 83.8913 45.9168C83.9003 45.8902 84.0404 45.8524 84.2027 45.8329C84.3651 45.8134 84.5221 45.7774 84.5518 45.753C84.63 45.6882 85.2759 45.6436 86.0467 45.6495C87.3964 45.6599 88.6466 46.0618 89.8072 46.8583C90.2592 47.1687 91.2416 48.1168 91.4429 48.4373C91.507 48.5392 91.5718 48.6322 91.587 48.6441C91.6311 48.6785 92.0413 49.4215 92.1473 49.6584C92.2057 49.7887 92.266 49.9182 92.3282 50.0468C92.3747 50.1418 92.4127 50.2524 92.4126 50.2925C92.4126 50.3326 92.4332 50.3783 92.4587 50.394C92.4843 50.4097 92.4955 50.4473 92.4838 50.4774C92.4722 50.5078 92.488 50.5811 92.5188 50.6404C92.5497 50.6998 92.5852 50.8138 92.5979 50.894C92.6106 50.974 92.6332 51.1075 92.6484 51.1907C92.7025 51.486 92.7215 51.6457 92.7188 51.7818C92.7173 51.8575 92.7342 51.9308 92.7564 51.9445C92.8117 51.9785 92.7448 53.7416 92.6845 53.8388C92.6693 53.8631 92.6525 53.9426 92.647 54.0152C92.6273 54.2734 92.5866 54.4491 92.5428 54.4637C92.5184 54.4718 92.5091 54.4953 92.5219 54.5161C92.5504 54.5619 92.4173 54.9808 92.3639 55.0137C92.343 55.0267 92.3259 55.0835 92.3259 55.1399C92.3259 55.1967 92.3064 55.2548 92.2825 55.2695C92.2587 55.2842 92.2393 55.3332 92.2393 55.3784C92.2393 55.4234 92.1982 55.4985 92.148 55.5452C92.0979 55.5917 92.068 55.6479 92.0818 55.67C92.0955 55.692 92.0599 55.754 92.0029 55.8074C91.9458 55.8609 91.9083 55.9285 91.9196 55.9578C91.9308 55.9871 91.9099 56.036 91.8731 56.0664C91.8364 56.0969 91.8063 56.1487 91.8063 56.1817C91.8063 56.2145 91.7672 56.2748 91.7196 56.3154C91.672 56.3561 91.633 56.4192 91.633 56.4557C91.633 56.4921 91.594 56.5463 91.5463 56.576C91.4987 56.6056 91.4598 56.6587 91.4598 56.6939C91.4598 56.7291 91.4209 56.7821 91.3732 56.8118C91.3256 56.8414 91.2865 56.8888 91.2865 56.9172C91.2865 56.9454 91.2281 57.01 91.1566 57.0608C91.0852 57.1115 91.0267 57.1905 91.0267 57.2363C91.0267 57.2822 91.0051 57.3197 90.9787 57.3197C90.9524 57.3197 90.8286 57.4265 90.7038 57.5571C90.5789 57.6877 90.4614 57.7945 90.4427 57.7945C90.424 57.7945 90.3578 57.8432 90.2955 57.9029C90.0351 58.1522 89.9981 58.183 89.9582 58.183C89.9352 58.183 89.8555 58.2364 89.7809 58.3017C89.7066 58.367 89.5909 58.4539 89.5241 58.4946L89.3379 58.6088C89.3021 58.6307 89.2241 58.67 89.1646 58.696C89.1054 58.7219 89.0476 58.7509 88.9915 58.7829C88.7144 58.9512 87.7451 59.2752 87.1697 59.392C86.6651 59.4946 85.6701 59.5368 85.1869 59.4761ZM86.205 56.393C86.2561 56.3572 86.4069 56.3267 86.5502 56.3228C86.7029 56.3189 86.8565 56.286 86.9344 56.2408C87.0059 56.1994 87.118 56.1528 87.1834 56.1374C87.249 56.1221 87.4259 56.0419 87.5767 55.9593C87.9602 55.7493 88.85 54.844 89.0049 54.5063C89.0662 54.3727 89.1344 54.2523 89.1564 54.2387C89.1785 54.2252 89.1869 54.165 89.1754 54.1052C89.1596 54.0227 89.1728 53.9963 89.2292 53.9963C89.2792 53.9963 89.2952 53.9738 89.2777 53.9283C89.2633 53.891 89.275 53.8182 89.3036 53.7665C89.3322 53.7148 89.3502 53.6373 89.3436 53.5943C89.3369 53.5515 89.354 53.4893 89.3816 53.4562C89.4091 53.4232 89.4187 53.3554 89.4028 53.3056C89.387 53.2558 89.3947 53.1903 89.4199 53.1599C89.4875 53.0789 89.4576 51.8652 89.386 51.7791C89.3555 51.7426 89.3429 51.6747 89.3577 51.628C89.3725 51.5813 89.3644 51.5307 89.3396 51.5154C89.3149 51.5002 89.2945 51.4303 89.2945 51.3602C89.2945 51.2901 89.2759 51.1989 89.2534 51.1577C89.1453 50.9612 89.059 50.7306 89.0698 50.6672C89.0763 50.6287 89.0524 50.5858 89.0167 50.5721C88.9809 50.5585 88.9021 50.45 88.8417 50.331C88.7813 50.2121 88.6917 50.0934 88.6428 50.0672C88.5939 50.0412 88.5593 49.9871 88.5659 49.947C88.5825 49.8462 88.5244 49.7663 88.4344 49.7663C88.3929 49.7663 88.2923 49.6978 88.2108 49.614C88.1293 49.5303 87.9419 49.3834 87.7945 49.2875C87.6469 49.1918 87.5149 49.0841 87.5012 49.0484C87.4849 49.0059 87.4461 48.9928 87.3893 49.0109C87.3277 49.0304 87.3025 49.0188 87.3025 48.9707C87.3025 48.9335 87.2685 48.9001 87.2268 48.8965C87.0864 48.8843 87.0647 48.8784 86.9789 48.8295C86.9207 48.7964 86.8677 48.7946 86.8131 48.8238C86.769 48.8473 86.7002 48.8533 86.6604 48.8372C86.5473 48.7913 85.3806 48.735 85.3321 48.773C85.3083 48.7918 85.1817 48.8207 85.0507 48.8375C84.9196 48.8543 84.7559 48.8953 84.6868 48.9287C84.6177 48.962 84.5407 48.9894 84.516 48.9894C84.4089 48.9894 83.8208 49.3117 83.6899 49.4422C83.611 49.5208 83.5099 49.5922 83.4653 49.6007C83.4206 49.6093 83.3574 49.6718 83.3247 49.7397C83.2921 49.8077 83.2307 49.8723 83.1883 49.8833C83.146 49.8944 83.1002 49.9583 83.0867 50.0255C83.0732 50.0927 83.003 50.215 82.9305 50.2972C82.8582 50.3794 82.7988 50.4751 82.7988 50.5098C82.7988 50.5446 82.7603 50.6077 82.7133 50.6502C82.6662 50.6927 82.6376 50.7434 82.6497 50.7629C82.6618 50.7825 82.6227 50.8304 82.5629 50.8694C82.476 50.9262 82.4626 50.9565 82.4968 51.0201C82.5291 51.0803 82.522 51.1095 82.4677 51.1397C82.4196 51.1666 82.4045 51.2117 82.4217 51.2772C82.4371 51.3357 82.4217 51.4 82.3834 51.4382C82.3464 51.475 82.3307 51.5373 82.3462 51.5857C82.361 51.6318 82.3503 51.6969 82.3225 51.7301C82.2947 51.7635 82.285 51.8315 82.3008 51.8813C82.3167 51.9311 82.3076 51.9982 82.2807 52.0307C82.2469 52.0712 82.2458 52.0981 82.2772 52.1175C82.3027 52.1332 82.3119 52.2059 82.2979 52.2831C82.2522 52.5356 82.2831 53.2503 82.3438 53.3482C82.3604 53.3749 82.3626 53.442 82.3486 53.4974C82.3328 53.5599 82.3477 53.6181 82.3879 53.6513C82.4234 53.6806 82.4526 53.7557 82.453 53.8181C82.4535 53.8804 82.5117 54.0459 82.5829 54.1858C82.654 54.3256 82.7122 54.4637 82.7122 54.4928C82.7122 54.5219 82.7513 54.5951 82.7989 54.6554C82.8465 54.7158 82.8855 54.8077 82.8855 54.8596C82.8855 54.9175 82.9188 54.9626 82.972 54.9765C83.0197 54.9888 83.0587 55.0164 83.0587 55.0376C83.0587 55.105 83.8951 55.8954 83.9664 55.8954C84.0039 55.8954 84.1898 55.973 84.3795 56.0679C84.5691 56.1629 84.7555 56.2406 84.7937 56.2406C84.8318 56.2406 84.8777 56.2552 84.8955 56.273C84.9134 56.2909 84.9799 56.3079 85.0435 56.311C85.3317 56.325 85.7519 56.3815 86.0912 56.4517C86.1038 56.4544 86.155 56.4279 86.205 56.393ZM103.845 59.2197C103.616 59.1933 103.59 59.1267 103.794 59.0851C103.874 59.0689 103.967 59.0147 104.002 58.9647C104.038 58.9146 104.104 58.8736 104.15 58.8736C104.196 58.8736 104.346 58.7902 104.483 58.6883C104.62 58.5863 104.79 58.4781 104.861 58.4477C104.931 58.4174 105.016 58.3541 105.049 58.3072C105.084 58.2574 105.147 58.2273 105.201 58.2349C105.266 58.244 105.311 58.2123 105.352 58.1266C105.385 58.06 105.453 57.989 105.505 57.9688C105.557 57.9487 105.676 57.8526 105.77 57.7554C105.864 57.6581 105.966 57.5787 105.996 57.5787C106.027 57.5787 106.083 57.5309 106.121 57.4725C106.16 57.414 106.232 57.3532 106.283 57.3373C106.378 57.3071 106.487 57.217 106.487 57.1679C106.487 57.1209 106.672 56.974 106.811 56.9111C106.886 56.8773 106.941 56.8192 106.941 56.7738C106.941 56.7209 106.982 56.6876 107.067 56.6728C107.188 56.6514 107.235 56.6027 107.283 56.4457C107.296 56.4041 107.346 56.3702 107.395 56.3702C107.445 56.3702 107.483 56.3417 107.483 56.3043C107.483 56.2682 107.529 56.221 107.585 56.1997C107.641 56.1784 107.697 56.1228 107.71 56.0763C107.722 56.0296 107.788 55.9637 107.856 55.9298C107.925 55.8958 107.976 55.8446 107.969 55.816C107.963 55.7874 108.006 55.746 108.064 55.7241C108.125 55.7009 108.175 55.6424 108.183 55.5848C108.193 55.5135 108.228 55.4834 108.305 55.4788C108.36 55.4755 108.415 55.472 108.469 55.468C108.51 55.4649 108.513 55.4421 108.482 55.3841C108.431 55.2895 108.497 55.2048 108.62 55.2048C108.694 55.2048 108.695 55.1987 108.633 55.1369C108.566 55.0698 108.549 55.0165 108.562 54.9153C108.565 54.8867 108.514 54.8336 108.448 54.7975C108.251 54.6901 108.161 54.6069 108.155 54.525C108.147 54.4085 108.092 54.3415 108.006 54.3415C107.923 54.3415 107.801 54.2255 107.725 54.0747C107.699 54.0233 107.62 53.9494 107.549 53.9104C107.478 53.8715 107.409 53.7924 107.395 53.7348C107.382 53.6771 107.332 53.6104 107.285 53.5866C107.064 53.4741 106.917 53.338 106.94 53.2664C106.957 53.2131 106.925 53.1746 106.825 53.1302C106.749 53.0961 106.654 53.01 106.615 52.9387C106.577 52.8675 106.468 52.7574 106.375 52.6941C106.282 52.6308 106.204 52.5628 106.202 52.543C106.2 52.5233 106.057 52.3614 105.885 52.1834C105.713 52.0053 105.555 51.8166 105.533 51.7641C105.511 51.7114 105.427 51.625 105.346 51.5718C105.265 51.5188 105.146 51.392 105.081 51.2898C105.016 51.1879 104.938 51.1043 104.907 51.1043C104.877 51.1043 104.829 51.077 104.801 51.0434C104.728 50.9564 104.811 50.9202 104.945 50.9806C105.03 51.0192 105.07 51.0185 105.119 50.9775C105.155 50.9482 105.205 50.9373 105.231 50.9532C105.257 50.9693 105.301 50.964 105.33 50.9418C105.363 50.9167 105.534 50.9169 105.783 50.9425C106.004 50.9652 106.218 50.9691 106.26 50.9514C106.359 50.909 106.938 50.9271 107.158 50.9792C107.253 51.0019 107.38 51.0281 107.439 51.0376C107.716 51.0812 107.904 51.2183 107.857 51.341C107.84 51.3856 107.884 51.4325 107.996 51.4895C108.182 51.5842 108.281 51.686 108.245 51.745C108.218 51.7886 108.304 51.8726 108.451 51.9455C108.502 51.9709 108.569 52.0446 108.6 52.1091C108.631 52.1737 108.681 52.2265 108.711 52.2265C108.775 52.2265 109.018 52.4763 109.054 52.5794C109.068 52.6191 109.149 52.6844 109.234 52.7246C109.319 52.7647 109.388 52.8184 109.388 52.844C109.388 52.9004 109.725 53.2192 109.784 53.2192C109.807 53.2192 109.82 53.2577 109.813 53.3046C109.803 53.3663 109.844 53.4127 109.963 53.473C110.144 53.5652 110.282 53.5513 110.318 53.4371C110.332 53.3956 110.392 53.3394 110.452 53.312C110.513 53.2845 110.55 53.2418 110.534 53.2171C110.495 53.1543 110.595 53.0467 110.692 53.0467C110.744 53.0467 110.774 53.016 110.774 52.9633C110.774 52.9098 110.809 52.875 110.871 52.8661C110.926 52.8585 110.969 52.8219 110.969 52.7827C110.97 52.6805 111.074 52.5733 111.145 52.6006C111.186 52.6163 111.207 52.5948 111.207 52.5364C111.207 52.4881 111.253 52.4121 111.31 52.3674C111.367 52.3229 111.421 52.2486 111.43 52.2025C111.439 52.155 111.488 52.1127 111.543 52.1048C111.604 52.0961 111.64 52.0611 111.64 52.0092C111.64 51.9642 111.679 51.9066 111.726 51.8813C111.774 51.8558 111.813 51.8161 111.813 51.7928C111.813 51.7517 112.049 51.4836 112.398 51.1293C112.595 50.9292 112.436 50.9507 113.931 50.9211C114.531 50.9092 114.833 50.9205 114.989 50.9609C115.262 51.0316 115.316 51.0808 115.192 51.1468C115.135 51.1773 115.107 51.2225 115.122 51.2611C115.139 51.3042 115.105 51.3395 115.017 51.37C114.946 51.3946 114.888 51.4421 114.888 51.4754C114.888 51.5087 114.852 51.5715 114.809 51.6148C114.765 51.6581 114.717 51.7263 114.702 51.7662C114.686 51.8061 114.624 51.8611 114.564 51.8886C114.504 51.9159 114.455 51.9641 114.455 51.9957C114.455 52.0273 114.416 52.0774 114.368 52.1071C114.32 52.1367 114.281 52.1909 114.281 52.2275C114.281 52.2643 114.223 52.3289 114.151 52.3711C114.079 52.4135 114.031 52.4654 114.044 52.4865C114.057 52.5076 114.018 52.5571 113.958 52.5965C113.898 52.6359 113.848 52.6907 113.848 52.7182C113.848 52.7458 113.795 52.8178 113.729 52.8784C113.664 52.9388 113.522 53.0924 113.415 53.2197C113.113 53.5793 112.854 53.8639 112.417 54.3214C112.371 54.3697 112.333 54.4252 112.333 54.4447C112.333 54.4642 112.284 54.5183 112.224 54.5651C112.165 54.6117 112.116 54.6753 112.116 54.7065C112.116 54.7376 112.079 54.7728 112.033 54.7848C111.906 54.8178 111.861 55.177 111.969 55.2955C112.033 55.3666 112.037 55.3893 111.989 55.4189C111.945 55.4457 111.975 55.478 112.099 55.5412C112.279 55.6329 112.466 55.809 112.383 55.809C112.268 55.809 112.346 55.8933 112.524 55.961C112.649 56.0085 112.724 56.0662 112.739 56.1269C112.752 56.1781 112.826 56.2574 112.905 56.3033C112.983 56.3491 113.147 56.4849 113.27 56.6049C113.425 56.7562 113.584 56.9043 113.746 57.049C113.91 57.1946 114.073 57.341 114.235 57.4881C114.364 57.6055 114.52 57.7274 114.581 57.7589C114.643 57.7903 114.729 57.8603 114.773 57.9144C114.817 57.9685 114.924 58.0494 115.011 58.0944C115.098 58.1394 115.29 58.2739 115.437 58.3932C115.585 58.5127 115.782 58.6492 115.875 58.6967C115.969 58.7442 116.107 58.8345 116.182 58.8975C116.257 58.9604 116.41 59.0466 116.521 59.0889C116.897 59.2309 116.805 59.2596 116.027 59.2429C114.984 59.2208 113.775 59.1476 113.53 59.0917C113.124 58.9993 112.617 58.7765 112.42 58.6042C112.313 58.5108 112.167 58.4093 112.095 58.3786C112.023 58.3478 111.777 58.1406 111.548 57.9182C111.319 57.6959 111.065 57.4672 110.985 57.4099C110.905 57.3527 110.742 57.1937 110.625 57.0565C110.507 56.9193 110.364 56.7953 110.308 56.7812C110.202 56.7548 110.174 56.7739 109.841 57.0931C109.76 57.1702 109.664 57.2333 109.628 57.2333C109.61 57.2333 109.593 57.2403 109.581 57.2526C109.568 57.265 109.561 57.2817 109.561 57.2992C109.561 57.3354 109.512 57.3834 109.453 57.406C109.386 57.4314 109.345 57.4808 109.345 57.5355C109.345 57.5998 109.308 57.6313 109.211 57.6506C109.126 57.6676 109.064 57.7135 109.039 57.7789C109.018 57.835 108.971 57.8808 108.934 57.8808C108.898 57.8808 108.868 57.9017 108.868 57.9272C108.868 57.9962 108.754 58.0966 108.675 58.0966C108.637 58.0966 108.588 58.1452 108.565 58.2045C108.543 58.2638 108.492 58.3125 108.454 58.3125C108.415 58.3125 108.327 58.3722 108.259 58.4453C108.171 58.5391 108.099 58.5758 108.014 58.5702C107.833 58.5582 107.814 58.5661 107.868 58.6305C107.943 58.7211 107.816 58.8041 107.652 58.7713C107.542 58.7493 107.514 58.7601 107.495 58.8306C107.478 58.895 107.436 58.9168 107.328 58.9168C107.245 58.9168 107.15 58.9503 107.105 58.9955C107.003 59.1 106.662 59.1673 106.054 59.203C105.433 59.2396 104.105 59.2497 103.845 59.2197ZM58.3365 59.1574C58.2898 59.098 58.2882 58.145 58.3348 58.1163C58.354 58.1045 58.3494 58.0365 58.3244 57.9653C58.291 57.8696 58.293 57.8192 58.3323 57.7721C58.3616 57.7369 58.3674 57.7082 58.3453 57.7082C58.3161 57.7082 58.3015 54.3571 58.3285 53.802C58.3296 53.7782 58.3259 53.3831 58.3203 52.9238C58.3145 52.4646 58.3242 52.0801 58.3415 52.0693C58.3589 52.0587 58.3509 52.0146 58.3238 51.9713C58.2947 51.9246 58.289 51.8597 58.3099 51.8114C58.3294 51.7667 58.3434 51.719 58.3409 51.7052C58.3366 51.6806 58.331 51.3355 58.3322 51.169C58.3343 50.8861 58.3317 49.9251 58.3276 49.4642C58.3249 49.1764 58.3247 48.8887 58.3267 48.6009C58.3288 48.4228 58.3299 48.0295 58.3288 47.7269C58.328 47.5183 58.3276 47.3097 58.3277 47.1011C58.328 47.0594 58.3285 46.8069 58.3288 46.54L58.3294 46.0544L58.5145 46.0507C59.3372 46.0345 61.5406 46.05 61.6115 46.0723C61.6892 46.097 61.6989 46.1312 61.689 46.3471C61.6828 46.4829 61.6737 46.5938 61.6686 46.5938C61.6331 46.5938 61.6383 47.0516 61.6739 47.0735C61.7025 47.0911 61.6974 47.1142 61.6598 47.1374C61.6134 47.1664 61.6119 47.1912 61.6524 47.2566C61.6831 47.3059 61.6949 47.424 61.6817 47.5493C61.6323 48.0186 61.6315 48.1086 61.6759 48.2001C61.7103 48.2708 61.7084 48.3127 61.6689 48.3602C61.6394 48.3955 61.6271 48.4437 61.6417 48.4671C61.6794 48.5277 61.7027 48.8953 61.6709 48.9269C61.6264 48.9713 61.6292 49.3529 61.6745 49.4085C61.6978 49.4372 61.7056 49.5148 61.6917 49.581C61.6353 49.849 61.622 50.3219 61.6701 50.3515C61.7049 50.373 61.7031 50.3909 61.6638 50.4152C61.6196 50.4423 61.6196 50.4745 61.6633 50.5798C61.6935 50.6525 61.7021 50.7358 61.6825 50.7672C61.6632 50.7984 61.6459 52.6924 61.6442 54.9763C61.6423 57.2602 61.6268 59.1428 61.6099 59.1597C61.557 59.2125 58.378 59.2102 58.3365 59.1574ZM64.6831 59.1669C64.6447 59.1433 64.6353 57.5557 64.6441 52.6086C64.6505 49.0188 64.6644 46.0729 64.675 46.0623C64.6856 46.0517 65.4306 46.0415 66.3307 46.0397L67.9669 46.0363L67.9589 46.6086L67.9507 47.1808L68.0592 47.2219C68.216 47.2814 68.2484 47.2734 68.2484 47.1755C68.2484 47.1248 68.2893 47.0725 68.3458 47.0506C68.3995 47.03 68.4908 46.9621 68.5491 46.8998C68.6106 46.8338 68.7223 46.7758 68.8164 46.7608C68.9286 46.7429 68.9712 46.717 68.9555 46.6763C68.9416 46.6404 68.981 46.597 69.0561 46.5651C69.1239 46.5361 69.2087 46.4779 69.2443 46.4356C69.2801 46.3932 69.3489 46.3528 69.3972 46.3456C69.4454 46.3385 69.5283 46.2894 69.5813 46.2367C69.6341 46.1839 69.7225 46.1408 69.7774 46.1408C69.8325 46.1408 69.9152 46.1122 69.9615 46.0773C70.0077 46.0426 70.0919 46.0134 70.1488 46.0126C70.2055 46.0118 70.3126 45.9742 70.387 45.929C70.4612 45.8837 70.6252 45.8368 70.7513 45.8246C70.8775 45.8125 71.0074 45.7806 71.0401 45.7535C71.128 45.6807 72.5998 45.6698 72.6719 45.7415C72.7018 45.7711 72.7795 45.7954 72.8448 45.7954C72.9101 45.7954 72.9764 45.8163 72.9921 45.8415C73.0078 45.8669 73.0495 45.8766 73.0848 45.8631C73.12 45.8496 73.1876 45.8656 73.2347 45.8986C73.282 45.9315 73.3561 45.9492 73.3996 45.938C73.4431 45.9266 73.4916 45.9386 73.5077 45.9643C73.5236 45.9901 73.5765 46.0112 73.625 46.0112C73.6735 46.0112 73.7648 46.0383 73.828 46.0714C73.8912 46.1044 74.0258 46.1656 74.1271 46.2074C74.2282 46.2491 74.3111 46.3095 74.3111 46.3415C74.3111 46.3736 74.3388 46.3997 74.3727 46.3997C74.4066 46.3997 74.4916 46.4477 74.5615 46.5064C74.6316 46.5651 74.6993 46.6025 74.7122 46.5898C74.7251 46.5769 74.8789 46.711 75.0538 46.8879C75.579 47.4186 75.7402 47.601 75.7402 47.6652C75.7402 47.6988 75.7785 47.7746 75.8254 47.834C75.8722 47.8934 75.8995 47.953 75.8858 47.9665C75.8723 47.9801 75.8924 48.0355 75.9306 48.0899C75.9687 48.1442 76 48.2288 76 48.2782C76 48.3275 76.0221 48.3899 76.049 48.4168C76.0761 48.4438 76.104 48.5379 76.111 48.6261C76.1179 48.7141 76.1474 48.8009 76.1764 48.8188C76.2054 48.8366 76.2181 48.8799 76.2045 48.9151C76.191 48.9502 76.1979 48.9968 76.22 49.0188C76.2607 49.0594 76.3106 49.3627 76.306 49.5429C76.3047 49.5982 76.3243 49.6819 76.3496 49.7292C76.3829 49.7911 76.3818 49.8318 76.3457 49.8751C76.3181 49.9082 76.3105 49.9592 76.3287 49.9885C76.382 50.0745 76.3822 50.4569 76.3292 50.4576C76.2997 50.4581 76.302 50.471 76.3351 50.4921C76.3768 50.5184 76.391 51.4707 76.3997 54.8137L76.411 59.1014L76.3121 59.1378C76.2486 59.1612 76.182 59.1552 76.1259 59.121C76.0543 59.0774 76.0321 59.0795 76.0014 59.1332C75.957 59.2108 75.4218 59.2125 75.0738 59.1361C74.894 59.0967 74.8543 59.1002 74.8116 59.1585C74.7709 59.214 74.6985 59.2235 74.435 59.2082C74.2556 59.1978 74.0842 59.1743 74.0541 59.1557C74.0239 59.1371 73.9135 59.1151 73.809 59.107C73.6635 59.0954 73.6184 59.107 73.6184 59.1554C73.6184 59.2035 73.5612 59.2189 73.3829 59.2189C73.2532 59.2189 73.1363 59.2014 73.1231 59.18C73.1045 59.1499 73.0798 55.2511 73.0974 55.1076C73.101 55.0778 73.1033 53.837 73.0997 53.8129C73.099 53.8068 73.0881 53.1999 73.0757 52.464C73.0633 51.728 73.0431 51.0385 73.0308 50.9317C73.0185 50.8248 73.0087 50.6805 73.0092 50.6109C73.0097 50.5415 72.9883 50.4585 72.9617 50.4268C72.9114 50.3662 72.8787 50.221 72.8673 50.0073C72.8636 49.9381 72.8364 49.8733 72.8069 49.8636C72.7774 49.8538 72.6628 49.7113 72.5522 49.5471C72.4416 49.3828 72.3342 49.2483 72.3135 49.2483C72.2929 49.2483 72.276 49.2223 72.276 49.1904C72.276 49.1163 72.1367 48.9894 72.0553 48.9894C72.021 48.9894 71.8569 48.9326 71.6906 48.8631C71.2785 48.6913 70.8944 48.6587 70.3475 48.7496C70.0863 48.7929 69.8696 48.8544 69.7986 48.9053C69.7341 48.9516 69.658 48.9894 69.6295 48.9894C69.6009 48.9894 69.5138 49.038 69.4357 49.0973C69.3576 49.1566 69.2614 49.2052 69.2219 49.2052C69.1824 49.2052 69.14 49.2435 69.1278 49.2901C69.1155 49.3368 69.0685 49.3867 69.0234 49.401C68.9785 49.4152 68.9415 49.464 68.9415 49.5092C68.9415 49.5546 68.8928 49.6235 68.8333 49.6623C68.7737 49.7013 68.7251 49.7693 68.7251 49.8136C68.7251 49.8641 68.6836 49.9045 68.6142 49.9219C68.5404 49.9404 68.5115 49.9707 68.5275 50.0125C68.5409 50.0472 68.5225 50.117 68.4869 50.1679C68.4511 50.2188 68.4218 50.2925 68.4218 50.3317C68.4218 50.3711 68.3933 50.4268 68.3584 50.4558C68.3234 50.4847 68.2977 50.5211 68.3012 50.5366C68.3116 50.5821 68.1942 50.9495 68.1548 50.9943C68.135 51.0169 68.1188 51.0885 68.1188 51.1536C68.1188 51.2187 68.1041 51.281 68.0862 51.2919C68.0683 51.3029 68.0569 51.4196 68.061 51.5512C68.0659 51.7131 68.0482 51.8069 68.0064 51.8415C67.9597 51.8801 67.9564 51.9072 67.9932 51.9512C68.021 51.9848 68.0274 52.0421 68.008 52.0858C67.9557 52.2035 67.9497 52.5441 67.9987 52.6043C68.0289 52.6413 68.0259 52.6784 67.9889 52.723C67.949 52.7708 67.9475 52.8028 67.9832 52.8456C68.0097 52.8775 68.0169 52.9179 67.9993 52.9355C67.9817 52.9531 67.9652 54.3551 67.9626 56.051C67.9602 57.7468 67.9439 59.1486 67.9266 59.1659C67.8854 59.2069 64.7499 59.2078 64.6834 59.167L64.6831 59.1669ZM95.4724 59.1224C95.4447 59.1051 95.3589 59.0905 95.2815 59.09L95.1408 59.0889L95.1376 55.7547C95.133 50.7197 95.1116 47.9854 95.076 47.8775C95.0582 47.8234 95.0619 47.7804 95.0844 47.7804C95.1311 47.7804 95.132 46.7648 95.0856 46.7182C95.0686 46.7014 95.0755 46.6628 95.1007 46.6325C95.1326 46.5943 95.133 46.5518 95.1018 46.494C95.0773 46.448 95.0695 46.3982 95.0846 46.3832C95.1267 46.3411 95.1409 45.8812 95.1001 45.8812C95.0506 45.8812 95.0594 45.4346 95.1094 45.4012C95.1336 45.385 95.1305 45.3387 95.1017 45.285C95.0702 45.2263 95.0687 45.1867 95.0973 45.1692C95.1585 45.1314 95.1513 44.987 95.0866 44.9568C95.0433 44.9367 95.0433 44.9267 95.0866 44.9065C95.1512 44.8764 95.1587 44.7319 95.0974 44.6943C95.0364 44.6567 95.0433 44.269 95.106 44.2065C95.1446 44.1681 95.1455 44.1422 95.1092 44.1061C95.0729 44.0698 95.0734 44.0366 95.1109 43.9765C95.1498 43.9144 95.1492 43.876 95.1079 43.8101C95.0432 43.7069 95.0374 43.6213 95.0974 43.6584C95.1212 43.6731 95.1408 43.6451 95.1408 43.5962C95.1408 43.5473 95.1219 43.5074 95.0989 43.5074C95.0425 43.5074 95.0522 43.1117 95.1106 43.0398C95.144 42.9986 95.1429 42.9596 95.1065 42.9016C95.0744 42.8504 95.0714 42.8112 95.0984 42.7945C95.154 42.7603 95.1532 42.6009 95.0973 42.6009C95.0347 42.6009 95.0441 42.4395 95.1082 42.4135C95.1489 42.3971 95.1497 42.3827 95.1119 42.3557C95.0484 42.3105 95.0506 41.8994 95.1146 41.8578C95.1486 41.8355 95.1458 41.7998 95.1046 41.7338C95.0633 41.6674 95.0602 41.628 95.0938 41.5944C95.1527 41.5357 95.1552 41.3923 95.0973 41.3923C95.0353 41.3923 95.0439 41.2748 95.1082 41.2449C95.1515 41.2247 95.1515 41.2148 95.1082 41.1945C95.0784 41.1806 95.0541 41.1243 95.0541 41.0694C95.0541 40.9813 95.0785 40.9675 95.2598 40.9525C95.562 40.9277 98.3778 40.9357 98.4036 40.9614C98.4158 40.9734 98.4306 42.9837 98.4369 45.4285C98.4437 48.0983 98.4642 49.8953 98.4886 49.9278C98.5147 49.9625 98.5099 50.0048 98.4751 50.0464C98.4353 50.0943 98.4338 50.1263 98.4695 50.1691C98.4959 50.201 98.5069 50.2378 98.4935 50.2511C98.4447 50.2998 98.4389 50.7794 98.4866 50.8089C98.5206 50.8297 98.5176 50.8587 98.4767 50.9079C98.433 50.9602 98.4302 51.0009 98.4655 51.073C98.5035 51.1505 98.5107 51.5139 98.4743 51.5139C98.469 51.5139 98.4592 51.6111 98.4526 51.7298C98.4447 51.8727 98.4622 51.9697 98.5044 52.0172C98.5608 52.0807 98.559 52.094 98.4891 52.1351C98.4287 52.1706 98.423 52.1898 98.4653 52.2177C98.5243 52.2565 98.5167 52.5711 98.4534 52.7174C98.4324 52.7659 98.4385 52.8311 98.4686 52.8792C98.4998 52.929 98.5023 52.9599 98.4755 52.9599C98.4189 52.9599 98.4186 53.1193 98.475 53.1541C98.5363 53.1918 98.5288 53.3362 98.4642 53.3663C98.4209 53.3865 98.4209 53.3965 98.4642 53.4167C98.5293 53.4469 98.5374 53.6505 98.4735 53.6505C98.443 53.6505 98.4433 53.6776 98.4746 53.7359C98.5078 53.7977 98.5057 53.8445 98.4671 53.9061C98.423 53.9766 98.4275 54.0057 98.4937 54.0788C98.566 54.1584 98.5669 54.1691 98.5026 54.1938C98.4139 54.2276 98.4104 54.3237 98.4968 54.3567C98.589 54.3919 98.5801 54.5566 98.486 54.5582C98.4137 54.5594 98.4137 54.5617 98.486 54.6034C98.5783 54.6571 98.5834 54.7442 98.4984 54.8145C98.4427 54.8605 98.443 54.8791 98.4999 54.9656C98.5578 55.0537 98.5575 55.0672 98.4983 55.0898C98.4136 55.1222 98.4128 55.2212 98.4968 55.2906C98.5324 55.3201 98.5617 55.3614 98.5617 55.3822C98.5617 55.4031 98.5324 55.4201 98.4966 55.4201C98.4794 55.4201 98.4629 55.427 98.4508 55.4392C98.4386 55.4513 98.4318 55.4678 98.4318 55.4849C98.4318 55.5205 98.4595 55.5496 98.4932 55.5496C98.5389 55.5496 98.554 55.6098 98.5524 55.787C98.5509 55.958 98.5338 56.0244 98.4911 56.0244C98.4152 56.0244 98.4165 56.0473 98.4993 56.1734C98.5616 56.2681 98.5607 56.28 98.4885 56.324C98.4143 56.3692 98.4152 56.3754 98.5048 56.439C98.6041 56.5093 98.5961 56.6287 98.492 56.6287C98.4589 56.6287 98.4318 56.6481 98.4318 56.6719C98.4318 56.6956 98.4635 56.715 98.5024 56.715C98.5594 56.715 98.5687 56.7472 98.5508 56.8806C98.5386 56.9715 98.5475 57.0798 98.5705 57.1209C98.6039 57.1802 98.5933 57.2009 98.52 57.22L98.4273 57.2442L98.5193 57.3418L98.6113 57.4395L98.5126 57.5084C98.4158 57.5759 98.4155 57.5784 98.498 57.6386C98.5599 57.6837 98.5843 57.7581 98.5901 57.9196C98.5972 58.1168 98.5887 58.1393 98.5067 58.1393H98.4154L98.5102 58.2273C98.6288 58.3374 98.6305 58.3998 98.516 58.4295C98.4273 58.4527 98.4273 58.4527 98.5207 58.5518C98.6168 58.6537 98.6044 58.7436 98.4942 58.7436C98.4004 58.7436 98.4191 58.8201 98.5209 58.8524C98.5898 58.8741 98.6069 58.9105 98.5967 59.0138C98.5894 59.0871 98.5559 59.156 98.5223 59.167C98.4817 59.1803 98.4698 59.1649 98.4869 59.1207C98.5279 59.0142 98.467 58.9949 98.3982 59.0928C98.3318 59.1873 98.2909 59.1886 97.6197 59.1159C97.4793 59.1007 97.3925 59.1078 97.3925 59.1348C97.3925 59.1781 97.2364 59.1732 96.5156 59.107C96.2634 59.0839 96.1799 59.0893 96.1799 59.129C96.1799 59.1868 95.5652 59.1808 95.4723 59.1221L95.4724 59.1224ZM121.501 59.0707C121.1 58.9559 120.931 58.787 120.74 58.3098C120.655 58.0982 120.642 57.9744 120.629 57.2738C120.621 56.8362 120.612 56.4729 120.609 56.4667C120.606 56.4604 120.595 55.8971 120.584 55.215C120.526 51.6269 120.508 51.0669 120.447 51.0435C120.414 51.031 120.387 50.9813 120.387 50.9331C120.387 50.8594 120.36 50.8455 120.211 50.8455C120.115 50.8455 119.994 50.8235 119.944 50.7968C119.894 50.7702 119.795 50.7453 119.723 50.7417C119.591 50.7351 119.56 50.6753 119.564 50.4354C119.568 50.1804 119.574 50.1765 119.916 50.1749C120.092 50.1741 120.299 50.1866 120.377 50.2027C120.454 50.2189 120.517 50.2151 120.517 50.1944C120.517 50.1284 121.893 50.1945 122.081 50.2696C122.238 50.3324 122.308 50.4138 122.204 50.4138C122.114 50.4138 122.207 50.4893 122.326 50.5131C122.486 50.545 122.684 50.7041 122.656 50.7778C122.644 50.81 122.676 50.8663 122.728 50.9028C122.798 50.9512 122.816 50.9965 122.798 51.0707C122.784 51.1266 122.801 51.2274 122.836 51.2945C122.915 51.4473 122.915 51.4496 122.823 51.4503C122.763 51.4509 122.76 51.4589 122.807 51.4886C122.84 51.5093 122.864 51.5721 122.861 51.6282C122.83 52.1927 122.864 53.3719 122.913 53.4206C122.929 53.4361 122.925 53.47 122.904 53.4959C122.882 53.5223 122.882 53.6562 122.902 53.8005C122.923 53.954 122.921 54.0777 122.897 54.1067C122.875 54.1333 122.869 54.1676 122.884 54.1825C122.899 54.1976 122.917 54.2832 122.923 54.3728C122.93 54.4625 122.948 54.6232 122.963 54.73C122.978 54.8369 122.993 55.0457 122.995 55.194C122.997 55.3585 123.017 55.4643 123.046 55.465C123.073 55.4658 123.06 55.4862 123.018 55.5104C122.96 55.5445 122.942 55.6121 122.942 55.8086C122.942 55.9485 122.958 56.0724 122.977 56.0841C122.996 56.0957 123.009 56.3542 123.006 56.6586C123.003 56.9629 123.019 57.2361 123.042 57.2659C123.111 57.3569 123.192 57.3261 123.239 57.1903C123.264 57.119 123.305 57.0608 123.33 57.0608C123.355 57.0608 123.375 57.0323 123.375 56.9973C123.375 56.9625 123.433 56.8913 123.504 56.8395C123.574 56.7873 123.622 56.7291 123.61 56.7098C123.598 56.6905 123.617 56.6305 123.651 56.5765C123.685 56.5224 123.726 56.417 123.742 56.3423C123.757 56.2676 123.808 56.1724 123.854 56.1306C123.935 56.0581 123.942 56.0582 124.027 56.1343C124.093 56.1939 124.108 56.2448 124.088 56.337C124.072 56.4084 124.082 56.486 124.112 56.5219C124.173 56.5949 124.135 57.0285 124.043 57.2991C124.011 57.3947 123.975 57.5497 123.964 57.6438C123.952 57.7378 123.922 57.8216 123.897 57.83C123.872 57.8383 123.81 57.9406 123.759 58.0573C123.709 58.1739 123.651 58.2693 123.63 58.2693C123.609 58.2693 123.592 58.2881 123.592 58.3109C123.592 58.4173 123.331 58.7144 123.116 58.8528C122.854 59.0209 122.823 59.0306 122.444 59.0636C122.302 59.0761 122.077 59.0961 121.946 59.1081C121.807 59.1208 121.623 59.1054 121.501 59.0707ZM125.71 59.0005C125.682 58.9837 125.581 58.9689 125.485 58.9676C124.854 58.9589 124.846 58.9401 124.855 57.5881C124.865 56.0819 124.86 55.9338 124.797 55.7444L124.739 55.5718H123.949C123.346 55.5718 123.159 55.5589 123.159 55.5177C123.159 55.4881 123.178 55.4637 123.202 55.4637C123.226 55.4637 123.246 55.4342 123.246 55.398C123.246 55.3617 123.293 55.3144 123.35 55.2926C123.408 55.2707 123.467 55.2129 123.483 55.164C123.499 55.1152 123.552 55.0535 123.601 55.027C123.748 54.9487 124.069 54.5681 124.252 54.2553C124.315 54.1484 124.416 54.0086 124.477 53.9447C124.596 53.8185 124.723 53.6213 124.82 53.408C124.854 53.3339 124.904 53.2598 124.93 53.2435C124.956 53.2274 124.978 53.1845 124.978 53.1482C124.978 53.1119 125.015 53.0498 125.06 53.0104C125.105 52.971 125.175 52.8478 125.216 52.7365C125.257 52.6253 125.319 52.5234 125.353 52.5102C125.388 52.497 125.404 52.4658 125.388 52.4407C125.373 52.4158 125.395 52.3429 125.438 52.2786C125.481 52.2145 125.511 52.1376 125.505 52.1079C125.499 52.0783 125.514 52.0539 125.539 52.0539C125.564 52.0539 125.584 52.0249 125.584 51.9892C125.584 51.9336 125.447 51.9245 124.615 51.9245C123.864 51.9245 123.635 51.9117 123.598 51.8674C123.563 51.8257 123.565 51.7965 123.602 51.7594C123.641 51.7205 123.641 51.6965 123.601 51.6568C123.538 51.5949 123.531 51.4496 123.591 51.4496C123.614 51.4496 123.621 51.4206 123.608 51.3849C123.586 51.3284 123.731 51.3202 124.753 51.3202H125.924L126.011 51.2099C126.059 51.1492 126.14 51.0134 126.191 50.908C126.243 50.8026 126.302 50.7053 126.324 50.692C126.346 50.6786 126.363 50.6216 126.363 50.5652C126.363 50.5009 126.396 50.4526 126.449 50.4356C126.529 50.4105 126.53 50.4011 126.469 50.3074C126.413 50.2229 126.351 50.2013 126.091 50.1761C125.919 50.1595 125.672 50.1187 125.542 50.0856C125.255 50.0123 125.235 50.0116 125.248 50.0767C125.254 50.105 125.227 50.1352 125.188 50.1439C125.082 50.167 124.998 49.6468 125.005 49.0002L125.01 48.4715H124.394C123.696 48.4715 123.664 48.4579 123.624 48.1414C123.602 47.9702 123.607 47.9613 123.732 47.9364C123.804 47.9221 124.123 47.9104 124.44 47.9104C124.938 47.9104 125.015 47.9013 124.993 47.845C124.979 47.8091 124.991 47.7522 125.019 47.7183C125.052 47.6787 125.057 47.6291 125.032 47.5786C124.973 47.4593 124.96 46.545 125.017 46.5099C125.044 46.4936 125.053 46.4339 125.038 46.3755C125.008 46.2554 125.052 46.2481 125.432 46.3112C125.57 46.3341 125.669 46.3312 125.703 46.3033C125.733 46.2789 125.907 46.2656 126.093 46.2735C126.278 46.2814 126.589 46.2844 126.786 46.2802C127.015 46.2753 127.143 46.2892 127.143 46.3189C127.143 46.3613 127.234 46.5887 127.313 46.7451C127.331 46.7806 127.33 46.953 127.312 47.1281C127.286 47.362 127.293 47.4919 127.337 47.6186C127.369 47.7135 127.386 47.8178 127.373 47.8507C127.354 47.9002 127.491 47.9104 128.178 47.9104H129.005L129.013 47.3168C129.017 46.9905 129.017 46.6694 129.013 46.6037C129.008 46.5378 129.034 46.4388 129.07 46.3835C129.13 46.2932 129.178 46.2806 129.558 46.2584C130.025 46.231 130.735 46.2772 131.051 46.3555C131.193 46.391 131.283 46.445 131.347 46.5336C131.431 46.6514 131.433 46.677 131.382 46.8783C131.342 47.0316 131.339 47.1167 131.371 47.1669C131.401 47.2143 131.402 47.302 131.374 47.4312C131.344 47.5724 131.347 47.6478 131.387 47.7104C131.432 47.7824 131.428 47.8053 131.362 47.8533C131.296 47.9017 131.373 47.9104 131.872 47.9104C132.519 47.9104 132.513 47.9075 132.513 48.191C132.513 48.4715 132.513 48.4715 131.934 48.4713H131.408L131.422 48.9137C131.429 49.1572 131.452 49.3728 131.472 49.3931C131.492 49.4132 131.49 49.4908 131.469 49.5654C131.448 49.64 131.43 49.7832 131.43 49.8838C131.43 50.1745 131.4 50.1816 130.196 50.1746C129.624 50.1713 129.114 50.1572 129.062 50.1431C128.983 50.122 128.962 50.1398 128.939 50.2471C128.923 50.3183 128.888 50.3851 128.86 50.3956C128.833 50.4062 128.807 50.4657 128.804 50.5278C128.8 50.59 128.774 50.6548 128.747 50.6719C128.671 50.7186 128.572 50.9284 128.572 51.043C128.572 51.1038 128.533 51.1658 128.474 51.1973L128.377 51.2502L128.485 51.2809C128.545 51.2978 129.475 51.3136 130.553 51.3159L132.513 51.3202V51.946L130.257 51.9344C128.45 51.9252 128.005 51.9338 128.021 51.9776C128.032 52.0077 127.998 52.0907 127.946 52.1618C127.894 52.2331 127.803 52.3885 127.746 52.5071C127.688 52.6258 127.617 52.7481 127.588 52.7788C127.559 52.8096 127.512 52.9115 127.484 53.0054C127.455 53.0992 127.418 53.1761 127.4 53.1761C127.363 53.1761 127.269 53.4109 127.249 53.5538C127.242 53.6073 127.255 53.651 127.278 53.651C127.302 53.651 127.309 53.6704 127.295 53.6942C127.243 53.7778 127.436 53.7359 127.593 53.6293C127.681 53.57 127.8 53.5215 127.857 53.5215C127.913 53.5215 128.012 53.5016 128.077 53.4774C128.141 53.453 128.712 53.4227 129.346 53.4098L130.499 53.3865L130.983 53.5111C131.435 53.6275 131.633 53.7253 131.855 53.9407C131.887 53.9713 131.93 53.9963 131.95 53.9963C131.971 53.9963 132.031 54.0739 132.085 54.1689C132.138 54.2638 132.201 54.3415 132.225 54.3415C132.248 54.3415 132.256 54.3531 132.242 54.367C132.228 54.381 132.244 54.4701 132.277 54.5651C132.345 54.7556 132.375 55.3036 132.406 56.8882C132.427 57.9907 132.409 58.1415 132.244 58.261C132.201 58.292 132.166 58.3406 132.165 58.3689C132.162 58.4564 132.024 58.5896 131.801 58.7191C131.56 58.8594 131.424 58.9009 130.932 58.9833C130.531 59.0507 128.964 59.0668 128.689 59.0064C128.589 58.9844 128.316 58.9331 128.082 58.8923C127.77 58.8379 127.609 58.7855 127.476 58.6956C127.291 58.5708 127.17 58.5295 127.264 58.6233C127.357 58.7157 127.32 58.8213 127.159 58.9201C127.018 59.0073 126.942 59.0174 126.381 59.0239C126.039 59.0278 125.737 59.0173 125.71 59.0005H125.71ZM129.343 58.166C129.466 58.1023 129.486 58.0967 129.59 58.0967C129.607 58.0965 129.624 58.0894 129.636 58.077C129.648 58.0646 129.655 58.0479 129.655 58.0306C129.655 57.9942 129.699 57.9468 129.752 57.9254C129.806 57.9039 129.83 57.8849 129.806 57.8829C129.78 57.8809 129.782 57.8669 129.81 57.8478C129.875 57.8043 130.011 57.2406 129.972 57.1779C129.874 57.0204 129.878 55.1098 129.976 54.9515C129.989 54.931 129.963 54.8815 129.919 54.8415C129.874 54.8015 129.826 54.7112 129.812 54.6408C129.797 54.5625 129.748 54.4978 129.688 54.4743C129.634 54.4531 129.557 54.3962 129.516 54.348C129.438 54.2542 129.403 54.2465 128.706 54.1696C128.339 54.129 128.25 54.1302 128.221 54.1767C128.201 54.208 128.131 54.2349 128.065 54.2364C127.701 54.2445 127.619 54.2585 127.619 54.3127C127.619 54.3443 127.575 54.394 127.522 54.4232C127.371 54.5056 127.275 54.6631 127.229 54.9059C127.164 55.2492 127.139 55.6874 127.182 55.7401C127.203 55.7661 127.217 56.0497 127.212 56.3701C127.207 56.6906 127.22 56.9883 127.241 57.0316C127.262 57.0749 127.279 57.2545 127.278 57.4308C127.277 57.6072 127.293 57.7514 127.313 57.7514C127.333 57.7514 127.363 57.8007 127.378 57.861C127.393 57.9214 127.424 57.9591 127.447 57.9449C127.471 57.9306 127.49 57.9387 127.49 57.9629C127.49 58.0403 127.93 58.1487 128.377 58.1812C129.075 58.2319 129.219 58.2297 129.343 58.166ZM129.068 49.3641C129.066 48.9559 129.046 48.6995 129.008 48.6088L128.951 48.4715H127.423L127.424 49.1369C127.424 49.5029 127.437 49.8149 127.452 49.8303C127.468 49.8455 127.78 49.8641 128.145 49.8714C128.511 49.8787 128.859 49.9053 128.918 49.9307C128.978 49.9559 129.036 49.9779 129.048 49.9793C129.06 49.9808 129.069 49.7039 129.068 49.3641ZM106.811 50.4501C106.692 50.4293 106.488 50.4177 106.357 50.4239L106.118 50.4354L106.107 49.5815L106.095 48.7276L105.981 48.6845C105.916 48.6598 105.398 48.6426 104.759 48.6442C104.149 48.6456 103.594 48.6462 103.526 48.6454C103.414 48.6442 103.404 48.6323 103.424 48.5259C103.437 48.4609 103.429 48.3739 103.407 48.3327C103.38 48.2834 103.385 48.2291 103.419 48.1742C103.468 48.0952 103.533 48.0906 104.643 48.0877C105.288 48.0859 105.877 48.0842 105.952 48.0838L106.089 48.083L106.082 47.1744L106.075 46.2657L106.465 46.2472C106.679 46.237 106.952 46.2331 107.071 46.2386C107.19 46.2441 107.536 46.2423 107.84 46.2348C108.269 46.2242 108.397 46.2339 108.414 46.2784C108.427 46.3099 108.441 46.724 108.447 47.1986L108.457 48.0614L109.453 48.0706C110.001 48.0757 110.677 48.0827 110.956 48.0862C111.333 48.0908 111.478 48.0774 111.521 48.0337C111.566 47.9884 111.579 47.7812 111.576 47.1194C111.574 46.6488 111.585 46.2554 111.602 46.2455C111.658 46.2105 113.895 46.198 113.917 46.2324C113.929 46.2515 113.945 46.5253 113.952 46.8406C113.96 47.156 113.972 47.4333 113.979 47.4571C113.986 47.4808 113.976 47.5362 113.957 47.5802C113.934 47.633 113.943 47.6728 113.983 47.6975C114.032 47.7281 114.033 47.7511 113.989 47.8221C113.893 47.9771 113.923 48.0329 114.119 48.0614C114.22 48.0761 114.342 48.088 114.39 48.0878C115.945 48.0809 116.549 48.0848 116.566 48.1014C116.596 48.1316 116.615 48.4803 116.591 48.5685C116.572 48.6383 116.474 48.6441 115.307 48.6441C114.07 48.6441 114.041 48.6461 113.986 48.7345C113.937 48.8116 113.94 48.8372 114.004 48.9071C114.072 48.9824 114.072 48.9894 114.007 48.9894C113.911 48.9894 113.914 49.1457 114.011 49.2006C114.073 49.236 114.077 49.2584 114.035 49.3273C114.007 49.3734 113.995 49.4523 114.008 49.5026C114.021 49.5529 114.009 49.6215 113.981 49.6548C113.947 49.6963 113.945 49.7243 113.976 49.7434C114.034 49.7791 114.036 49.939 113.978 49.939C113.912 49.939 113.927 50.051 114 50.112C114.058 50.16 114.057 50.1723 113.991 50.2205C113.928 50.2663 113.926 50.2857 113.974 50.3438C114.058 50.4452 113.942 50.4763 113.64 50.4324C113.505 50.4127 113.291 50.4003 113.166 50.4049C113.041 50.4095 112.846 50.4155 112.733 50.4182C112.476 50.4245 111.636 50.3815 111.616 50.3611C111.608 50.3528 111.595 49.9678 111.588 49.5058L111.575 48.6657L110.052 48.6543C108.553 48.6432 108.528 48.6444 108.5 48.7308C108.452 48.8835 108.445 49.2246 108.49 49.2807C108.519 49.3172 108.515 49.356 108.477 49.401C108.433 49.4547 108.433 49.4877 108.481 49.5764C108.529 49.6662 108.529 49.6919 108.483 49.7206C108.445 49.7439 108.441 49.7649 108.472 49.7838C108.532 49.821 108.512 50.2359 108.443 50.3593C108.391 50.4525 108.37 50.4554 107.817 50.4456C107.502 50.4399 107.196 50.4471 107.136 50.4615C107.077 50.4759 106.93 50.4709 106.811 50.4501ZM122.228 49.1874C122.05 49.122 121.599 49.0079 121.383 48.9735C121.065 48.9229 120.868 48.8114 120.847 48.6707C120.842 48.6353 120.784 48.5525 120.717 48.4863C120.651 48.4202 120.618 48.3589 120.644 48.3504C120.716 48.3263 120.7 48.2676 120.593 48.1684C120.54 48.1186 120.494 48.0547 120.492 48.0264C120.479 47.8508 120.415 47.5605 120.384 47.5416C120.365 47.5293 120.357 47.3905 120.367 47.233C120.378 47.0755 120.368 46.9242 120.345 46.897C120.322 46.8698 120.308 46.771 120.313 46.6776L120.322 46.5075L120.539 46.5173C120.927 46.5345 121.188 46.5247 121.222 46.4914C121.24 46.4735 121.376 46.4745 121.525 46.4938C121.673 46.513 121.953 46.517 122.147 46.5027C122.559 46.4722 122.599 46.5049 122.612 46.8744C122.614 46.9338 122.64 47.0081 122.671 47.0395C122.726 47.0967 122.743 47.1761 122.728 47.3169C122.724 47.3633 122.75 47.3925 122.797 47.3925C122.853 47.3925 122.861 47.4051 122.825 47.4409C122.777 47.4882 122.783 47.5414 122.857 47.7161C122.898 47.8148 123.031 48.3689 123.041 48.4822C123.045 48.5239 123.064 48.5579 123.084 48.5579C123.104 48.5579 123.11 48.5746 123.098 48.5953C123.085 48.6158 123.113 48.6673 123.16 48.7098C123.207 48.7523 123.246 48.8212 123.246 48.863C123.246 48.9048 123.299 48.978 123.365 49.0255C123.43 49.073 123.474 49.1212 123.462 49.1325C123.435 49.1581 122.287 49.2092 122.228 49.1874ZM60.0127 44.9099C60.0005 44.8977 59.9144 44.8784 59.8214 44.8671C59.5299 44.8318 59.3708 44.7941 59.3462 44.7545C59.3333 44.7336 59.2859 44.7163 59.2411 44.7163C59.1594 44.7163 58.8868 44.5744 58.7647 44.4684C58.5852 44.3121 58.3324 44.0426 58.3321 44.007C58.3319 43.9847 58.2942 43.9265 58.2483 43.8775C58.0796 43.6973 57.901 43.0523 57.8996 42.6177C57.899 42.4466 57.9301 42.2792 57.9876 42.1429C58.0842 41.9136 58.2023 41.686 58.242 41.6518C58.256 41.6399 58.3244 41.5526 58.3942 41.4576C58.7073 41.0321 59.1431 40.7454 59.4766 40.7454C59.5376 40.7454 59.5875 40.7278 59.5875 40.7064C59.5875 40.6413 60.4749 40.6734 60.5571 40.7413C60.5963 40.7738 60.6622 40.804 60.7035 40.8084C60.7447 40.8127 60.8173 40.8313 60.865 40.8496C60.9126 40.8679 61.0058 40.9031 61.0719 40.9278C61.1381 40.9525 61.2933 41.0672 61.4168 41.1828C61.5403 41.2983 61.6547 41.3929 61.6712 41.3929C61.6875 41.3929 61.7214 41.4511 61.7463 41.5224C61.7713 41.5936 61.8133 41.6518 61.8398 41.6518C61.8664 41.6518 61.9502 41.7829 62.0257 41.9432C62.1531 42.2125 62.1635 42.2686 62.1639 42.6878C62.1644 43.117 62.0721 43.5709 61.9711 43.6373C61.928 43.6657 61.7528 44.0644 61.7528 44.1341C61.7528 44.2292 61.4313 44.482 61.1765 44.5873C61.0409 44.6432 60.93 44.7029 60.93 44.7197C60.93 44.755 60.7906 44.7937 60.5545 44.8238C60.4633 44.8354 60.3206 44.8645 60.2374 44.8886C60.0642 44.9384 60.0434 44.9405 60.0127 44.9099Z" fill="black"/>
</g>
</svg>
