<svg width="177" height="65" viewBox="0 0 177 65" fill="none" xmlns="http://www.w3.org/2000/svg">
<g id="AIRTEX logo" clip-path="url(#clip0_20_3124)">
<path id="Vector" d="M101.981 54.5764L97.491 41.4827C96.9407 39.2721 98.0133 37.908 101.044 35.4947C102.69 34.4003 106.393 30.5014 105.163 26.5151C103.658 22.0908 101.521 18.7125 93.7511 18.845H79.3447L70.1796 54.5764H80.2801L86.6422 28.7585H89.2613C91.5826 28.8458 92.362 31.3791 89.8209 33.2483C87.2939 35.2765 84.7621 36.2508 86.2665 41.1054L90.7563 54.5764H101.981ZM18.921 64.4898H0.0249023L37.2528 9.86389C43.0615 1.36912 51.6342 0.589639 61.2 0.510132H69.0572L55.0265 54.5764H41.3701L43.4263 44.663H34.0726L42.678 31.9419H46.6066L49.5998 18.4725L18.921 64.4898ZM66.0624 18.845L56.8957 54.5764H68.1202L77.2885 18.845H66.0624Z" fill="black"/>
<path id="Vector_2" d="M107.406 18.8451L102.355 28.7585H109.84L103.292 54.5764H114.142L120.877 28.7585H127.797L124.43 18.8451H107.406Z" fill="black"/>
<path id="Vector_3" d="M128.92 18.8451H141.828L146.505 28.7585H136.777L135.467 32.8757H143.7L141.828 40.5458H133.597L132.474 44.6615H145.945L139.396 54.5764H119.753L128.92 18.8451Z" fill="black"/>
<path id="Vector_4" d="M143.7 18.8451L152.304 37.9252L141.641 54.5764H153.615L157.168 48.9626L159.598 54.5764H171.386L164.091 37.7397L176.625 18.8451H164.838L159.598 26.7022L155.671 18.8451H143.7Z" fill="black"/>
</g>
<defs>
<clipPath id="clip0_20_3124">
<rect width="176.6" height="64" fill="white" transform="translate(0.0249023 0.5)"/>
</clipPath>
</defs>
</svg>
