<svg width="225" height="57" viewBox="0 0 225 57" fill="none" xmlns="http://www.w3.org/2000/svg">
<g id="Boom_Technology_logo_(black) logo" clip-path="url(#clip0_20_3108)">
<path id="Vector" d="M84.6159 14.8C84.6159 14.5 84.8159 14.3 85.1159 14.3H99.8159C106.016 14.3 109.316 17.2 109.316 21.9C109.316 25 107.216 26.9 105.016 27.6C107.616 28.4 109.916 30.7 109.916 34.4C109.916 39.3 106.616 42.5 100.016 42.5H85.1159C84.8159 42.5 84.6159 42.3 84.6159 42V14.8ZM89.9159 18.9V25.8H99.2159C102.316 25.8 103.816 24.6 103.816 22.3C103.816 19.9 102.216 18.8 99.2159 18.8H89.9159V18.9ZM89.9159 30.3V38.1H99.4159C102.916 38.1 104.516 36.7 104.516 34.2C104.516 31.6 102.816 30.3 99.4159 30.3H89.9159ZM116.516 28.5C116.516 20 122.916 13.9 131.316 13.9C139.716 13.9 146.116 20 146.116 28.5C146.116 36.9 139.716 43.1 131.316 43.1C122.816 43.1 116.516 37 116.516 28.5ZM140.716 28.5C140.716 23.1 137.016 18.8 131.416 18.8C125.816 18.8 122.116 23.2 122.116 28.5C122.116 34 125.816 38.2 131.416 38.2C136.916 38.3 140.716 33.9 140.716 28.5ZM152.916 28.5C152.916 20 159.316 13.9 167.716 13.9C176.116 13.9 182.516 20 182.516 28.5C182.516 36.9 176.116 43.1 167.716 43.1C159.216 43.1 152.916 37 152.916 28.5ZM177.116 28.5C177.116 23.1 173.416 18.8 167.816 18.8C162.216 18.8 158.516 23.2 158.516 28.5C158.516 34 162.216 38.2 167.816 38.2C173.316 38.3 177.116 33.9 177.116 28.5ZM207.016 35L215.416 14.7C215.516 14.5 215.616 14.4 215.816 14.4H222.716C223.016 14.4 223.216 14.6 223.216 14.9V42.2C223.216 42.5 223.016 42.7 222.716 42.7H218.416C218.116 42.7 217.916 42.5 217.916 42.2V19.5L208.516 42.5C208.416 42.7 208.316 42.8 208.116 42.8H205.116C204.916 42.8 204.716 42.7 204.716 42.5L195.416 19.7V42.2C195.416 42.5 195.216 42.7 194.916 42.7H190.916C190.616 42.7 190.416 42.5 190.416 42.2V14.9C190.416 14.6 190.616 14.4 190.916 14.4H198.116C198.316 14.4 198.516 14.5 198.516 14.7L207.016 35ZM63.1159 28.6C63.0159 27.8 62.3159 27.3 61.5159 27.4L45.3159 29.6L62.0159 22.6C62.8159 22.3 63.2159 21.3 62.9159 20.5C62.6159 19.7 61.6159 19.3 60.8159 19.6L47.8159 25.1L60.4159 15.4C61.2159 14.8 61.3159 13.7 60.7159 12.9C60.1159 12.1 59.0159 12 58.2159 12.6L47.7159 20.7L56.8159 8.69999C57.4159 7.89999 57.3159 6.69999 56.4159 5.99999C55.6159 5.39999 54.4159 5.49999 53.7159 6.39999L46.2159 16.3L51.8159 3.09999C52.2159 2.09999 51.8159 0.999989 50.8159 0.499989C49.8159 0.0999885 48.7159 0.499989 48.2159 1.49999L37.3159 27C36.3159 29.3 33.9159 30.9 31.2159 30.9C28.6159 30.9 26.5159 29.4 25.4159 27.1L13.7159 0.599989C13.6159 0.299989 13.2159 0.0999886 12.9159 0.299989C12.6159 0.399989 12.4159 0.799989 12.6159 1.09999L23.0159 24.5L8.51587 5.79999C8.21587 5.49999 7.71587 5.39999 7.41587 5.69999C7.11587 5.99999 7.01587 6.49999 7.31587 6.79999L21.8159 25.5L4.61587 12.4C4.21587 12.1 3.61587 12.2 3.31587 12.6C3.01587 13 3.11587 13.6 3.51587 13.9L21.4159 27.6L2.41587 19.9C1.81587 19.7 1.21587 19.9 0.915867 20.5C0.715867 21.1 0.915867 21.7 1.51587 22L21.4159 30.1L2.11587 27.6C1.41587 27.5 0.815867 28 0.715867 28.7C0.615867 29.4 1.11587 30 1.81587 30.1L22.1159 32.7L3.91587 35.2C3.11587 35.3 2.61587 36 2.71587 36.8C2.81587 37.6 3.51587 38.1 4.31587 38L23.2159 35.4L7.51587 42C6.71587 42.3 6.31587 43.3 6.61587 44.1C6.91587 44.9 7.91587 45.3 8.71587 45L25.4159 38L12.8159 47.8C12.0159 48.4 11.9159 49.5 12.5159 50.3C13.1159 51.1 14.2159 51.2 15.0159 50.6L28.1159 40.5L19.4159 51.9C18.8159 52.7 18.9159 53.9 19.8159 54.6C20.6159 55.2 21.8159 55.1 22.5159 54.2L30.6159 43.5L26.1159 54.1C25.7159 55.1 26.1159 56.2 27.1159 56.7C28.1159 57.1 29.2159 56.7 29.7159 55.7L33.2159 47.4L37.1159 56.3C37.2159 56.6 37.6159 56.8 37.9159 56.6C38.2159 56.5 38.4159 56.1 38.2159 55.8L33.8159 45.8L35.1159 42.8L43.9159 54.2C44.2159 54.5 44.7159 54.6 45.0159 54.3C45.3159 54 45.4159 53.5 45.1159 53.2L35.7159 41.1L36.4159 39.3L50.5159 50.1C50.9159 50.4 51.5159 50.3 51.8159 49.9C52.1159 49.5 52.0159 48.9 51.6159 48.6L37.1159 37.5L37.4159 36.8L56.0159 44.4C56.6159 44.6 57.2159 44.4 57.5159 43.8C57.7159 43.2 57.5159 42.6 56.9159 42.3L39.1159 35.1L59.8159 37.8C60.5159 37.9 61.1159 37.4 61.2159 36.7C61.3159 36 60.8159 35.4 60.1159 35.3L42.6159 33.1L61.8159 30.5C62.6159 30.1 63.2159 29.4 63.1159 28.6Z" fill="black"/>
</g>
<defs>
<clipPath id="clip0_20_3108">
<rect width="224" height="57" fill="white" transform="translate(0.0158691)"/>
</clipPath>
</defs>
</svg>
