<svg width="64" height="65" viewBox="0 0 64 65" fill="none" xmlns="http://www.w3.org/2000/svg">
<g id="Grupo logo" clip-path="url(#clip0_20_3110)">
<g id="Grupo_x5F_Financiero_x5F_del_x5F_Atlantico">
<path id="Vector" d="M27.1066 1.12731C27.6848 0.788491 28.322 0.468321 29.0121 0.502514C29.3665 0.518056 29.7519 0.446561 30.0783 0.617526C34.4146 2.92089 38.7136 5.28953 43.0685 7.55871C44.2839 8.18351 45.4776 8.8425 46.6961 9.46419C47.3333 9.74084 47.9302 10.3159 47.8866 11.0619C47.8835 16.309 47.896 21.5561 47.8804 26.8032C48.241 27.0798 48.6544 27.2756 49.0554 27.4932C53.2425 29.8059 57.4451 32.0969 61.6353 34.4095C62.5306 34.9349 62.9844 35.942 63.1989 36.9181C63.3699 37.4838 63.3108 38.0806 63.3326 38.6619C63.3326 43.1319 63.3326 47.6018 63.3326 52.0718C63.3947 52.7152 62.7824 53.11 62.3005 53.3991C56.6121 56.9987 50.936 60.6169 45.2507 64.2227C44.5948 64.7108 43.7182 64.487 43.0747 64.0984C38.524 61.4687 33.9825 58.8265 29.4348 56.1905C29.2887 56.0755 29.1333 56.2433 29.0059 56.3024C25.5866 58.4441 22.1548 60.5672 18.7262 62.6965C17.8745 63.2063 17.0694 63.8373 16.0965 64.1015C14.766 64.487 13.3051 64.2196 12.1425 63.486C8.7232 61.3878 5.30079 59.299 1.86906 57.2194C1.14479 56.7966 0.436058 56.2185 0.196707 55.3823C0.118995 55.031 0.00709096 54.6798 0.0164163 54.3192C0.0226332 48.1614 0.0101994 42.0004 0.0226332 35.8425C0.165622 34.8976 0.454709 33.8189 1.34684 33.3123C5.75773 30.6607 10.1313 27.944 14.5484 25.2987C14.5733 20.8536 14.5516 16.4085 14.5578 11.9634C14.6417 10.9873 14.7505 9.9833 15.1795 9.08496C15.509 8.42597 15.941 7.77941 16.5907 7.40018C20.0815 5.28643 23.6096 3.22863 27.1066 1.12731ZM29.6866 4.03683C29.6307 4.23577 29.5312 4.42538 29.5343 4.63676C29.5374 13.3498 29.5343 22.0597 29.5343 30.7727C29.5001 31.4783 29.3478 32.1808 29.1085 32.846C28.7821 33.8252 28.0547 34.6489 27.1284 35.1027C23.3298 37.4652 19.4816 39.753 15.683 42.1216C15.2789 42.4014 14.7287 42.3827 14.2811 42.2553C10.7934 40.2876 7.33683 38.2671 3.84293 36.3119C3.6129 36.1534 3.32692 36.2249 3.06892 36.2404C3.03473 36.5948 3.03473 36.9492 3.03784 37.3066C3.04716 42.8335 3.02851 48.3572 3.04716 53.8809C3.22434 53.8281 3.41085 53.8001 3.56316 53.6913C10.8649 49.24 18.2009 44.8477 25.5026 40.3995C26.3108 39.955 27.0538 39.3769 27.9521 39.1189C28.6049 38.8515 29.326 38.8982 30.0161 38.951C30.8989 39.2401 31.6512 39.7996 32.4625 40.2379C35.9502 42.2397 39.441 44.2354 42.9287 46.2341C43.4074 46.4921 43.7835 46.9428 43.9234 47.4713C44.0788 48.466 44.0073 49.4762 44.0228 50.4803C44.0259 53.6726 44.0166 56.865 44.0259 60.0543C44.0073 60.4304 44.228 60.962 44.6787 60.906C45.1357 60.8967 45.49 60.5423 45.8724 60.3279C50.5817 57.3375 55.2817 54.3285 60.0034 51.36C60.1091 51.304 60.1526 51.1921 60.2054 51.0926C51.8499 46.4268 43.5224 41.7051 35.1668 37.0331C34.0851 36.3896 33.395 35.1804 33.3639 33.9246C33.367 29.3024 33.3639 24.6801 33.3639 20.0578C33.3764 19.6972 33.5411 19.3522 33.7432 19.06C34.1255 18.6621 34.6291 18.4103 35.0829 18.1057C37.7748 16.3681 40.4885 14.6584 43.1773 12.9115C43.5752 12.6441 44.0166 12.4359 44.3492 12.0846C44.4176 11.9572 44.4394 11.752 44.2964 11.665C43.9327 11.3697 43.4851 11.2049 43.081 10.9811C38.8131 8.67464 34.5296 6.39615 30.2679 4.07413C30.0969 3.96222 29.8794 4.02129 29.6866 4.03683ZM25.0177 6.13193C24.3587 6.42101 23.765 6.83755 23.1402 7.18569C21.7694 7.997 20.3986 8.79898 19.0339 9.6134C18.2009 10.1356 17.6693 11.0899 17.688 12.0784C17.6818 19.9646 17.688 27.8538 17.6849 35.74C17.6538 36.1254 17.8527 36.5451 18.2351 36.6725C18.7045 36.7751 19.1645 36.5606 19.5531 36.3119C21.3218 35.1494 23.1309 34.049 24.8903 32.8678C25.8632 32.2243 26.2145 30.9809 26.2611 29.8774C26.2735 22.2151 26.2642 14.5527 26.2642 6.89039C26.3326 6.54224 26.0746 6.29667 25.8726 6.05422C25.5866 6.05732 25.2819 5.99826 25.0177 6.13193ZM44.3306 15.8334C43.7742 16.1163 43.2675 16.4862 42.7359 16.8095C41.076 17.8912 39.3912 18.9419 37.7251 20.0174C37.3987 20.1977 37.1873 20.5365 37.3086 20.9126C37.5417 21.2483 37.9271 21.4131 38.2691 21.6089C40.2616 22.7249 42.2324 23.8843 44.2156 25.0158C44.5295 25.2551 44.9647 24.9132 44.9491 24.5713C44.9491 21.8017 44.9523 19.0289 44.946 16.2593C44.9336 15.9888 44.6103 15.6096 44.3306 15.8334ZM37.1158 24.7018C36.6713 25.0438 36.6371 25.6499 36.5221 26.1566C36.5097 28.1118 36.519 30.067 36.519 32.0223C36.634 32.9672 36.8796 33.9402 37.4889 34.6986C38.0049 35.3545 38.698 35.8457 39.441 36.2156C45.9003 39.7312 52.3442 43.2749 58.8004 46.7936C59.1797 46.977 59.5589 47.2381 60.0003 47.2008C60.4106 47.2599 60.6189 46.7843 60.6033 46.4424C60.5971 43.996 60.6095 41.5497 60.5971 39.1064C60.4697 37.7294 59.4035 36.6756 58.2627 36.0197C51.4862 32.2896 44.716 28.547 37.9427 24.8137C37.7002 24.677 37.3707 24.5309 37.1158 24.7018ZM13.9827 29.5604C11.7788 30.8037 9.59357 32.0844 7.39278 33.3371C7.07572 33.5267 6.62499 33.8189 6.78663 34.2541C7.08815 34.6085 7.52334 34.7919 7.91811 35.0157C9.93861 36.1534 11.9373 37.3284 13.9765 38.4257C14.1661 38.5687 14.3713 38.4474 14.5422 38.3417C14.5795 35.4789 14.5578 32.6129 14.5547 29.75C14.5951 29.4236 14.1723 29.3956 13.9827 29.5604ZM26.6497 43.5235C20.2898 47.4153 13.9236 51.2916 7.56685 55.1896C7.26534 55.3481 7.06329 55.6217 6.89232 55.9107C7.05707 56.29 7.31196 56.6319 7.68809 56.8277C9.09 57.6204 10.4484 58.4876 11.8317 59.3145C12.2824 59.5756 12.7145 59.8865 13.2118 60.0574C14.1443 60.4304 15.1981 60.4553 16.1617 60.188C16.8549 59.9952 17.458 59.5911 18.0672 59.2181C24.0821 55.5875 30.1032 51.9661 36.1149 48.3261C36.5563 48.0836 36.9915 47.7977 37.2775 47.3749C37.3956 47.0361 37.206 46.7315 36.9014 46.5823C35.1513 45.5565 33.3919 44.54 31.6512 43.4956C31.0015 43.1412 30.3705 42.6065 29.5872 42.6532C28.5365 42.5599 27.5325 42.9982 26.6497 43.5235ZM39.8699 49.5819C37.8588 50.7911 35.8818 52.0625 33.8737 53.2872C33.4727 53.539 33.0344 53.7877 32.7858 54.2073C32.7143 54.6021 33.0469 54.8943 33.3608 55.0621C35.5305 56.3148 37.7002 57.5738 39.8637 58.8327C40.1373 58.9508 40.4512 58.8918 40.7403 58.8855C40.8677 58.6959 41.0605 58.5125 41.0201 58.2638C41.0232 55.5937 41.0232 52.9204 41.0201 50.2502C41.0605 49.9394 40.8087 49.7342 40.6284 49.5198C40.3797 49.5353 40.1031 49.4638 39.8699 49.5819Z" fill="black"/>
</g>
</g>
<defs>
<clipPath id="clip0_20_3110">
<rect width="63.3255" height="64" fill="white" transform="translate(0.0158691 0.5)"/>
</clipPath>
</defs>
</svg>
