<svg width="93" height="93" viewBox="0 0 93 93" fill="none" xmlns="http://www.w3.org/2000/svg">
<g id="Haute logo" clip-path="url(#clip0_20_3113)">
<g id="Group">
<path id="Vector" fill-rule="evenodd" clip-rule="evenodd" d="M0.341309 0.5H92.3413V92.5H0.341309V0.5Z" fill="white"/>
<path id="Vector_2" fill-rule="evenodd" clip-rule="evenodd" d="M17.1681 49.3351H19.565V29.773H17.1681V29.5085H26.5993V29.773H23.6191V38.7918H30.376V29.773H27.6875V29.5085H37.4103V29.773H34.4301V49.3355H37.1187V49.5828H27.6875V49.3355H30.376V39.1287H23.6191V49.3351H26.5993V49.5823H17.1681V49.3351ZM48.954 43.7675V46.8761C48.954 48.5456 47.8839 49.6496 46.2287 49.6496C45.0827 49.6496 44.1405 49.0558 43.6819 47.8674C43.0199 49.2258 41.2625 49.6496 40.2692 49.6496C38.3081 49.6496 36.3216 48.6597 36.3216 46.1974C36.3216 43.2539 38.8431 42.5748 41.1608 42.3767L43.6566 42.1505V39.7736C43.6566 38.0754 43.3654 36.7729 41.4553 36.7729C40.5895 36.7729 39.0192 37.1809 39.045 37.8038C39.0484 37.8579 39.0686 37.9096 39.1028 37.9518L39.1576 37.9508C39.4796 37.9508 39.7958 38.0363 40.0739 38.1985C40.352 38.3607 40.5821 38.5938 40.7407 38.874C40.8993 39.1541 40.9807 39.4714 40.9767 39.7933C40.9726 40.1152 40.8831 40.4303 40.7175 40.7064C40.5518 40.9825 40.3159 41.2096 40.0337 41.3647C39.7516 41.5198 39.4333 41.5972 39.1115 41.5891C38.7896 41.5809 38.4757 41.4876 38.2017 41.3184C37.9278 41.1493 37.7036 40.9105 37.552 40.6265C37.3564 40.3105 37.2642 39.9134 37.2642 39.4905C37.2642 37.9059 39.1233 36.5194 41.6701 36.5194C44.2933 36.5194 47.0181 37.3117 47.0181 40.5377V47.046C47.0181 47.9232 47.146 48.4611 47.6047 48.4611C48.2151 48.4611 48.6246 47.5944 48.6246 46.8589L48.6366 46.8598V43.768L48.954 43.7675ZM43.6561 42.4774L41.6076 42.6311C39.9518 42.8292 39.8359 44.0749 39.8359 45.5745C39.8359 47.046 39.9122 48.8 41.6443 48.8C42.8413 48.8 43.605 47.4417 43.6566 45.942L43.6561 42.4774ZM74.9752 36.3476C77.7038 36.2898 80.339 39.8767 80.3652 42.9953H73.193L73.1567 44.8371C73.1567 46.8007 73.3806 49.2907 75.7966 49.2907C77.8241 49.2907 79.528 47.5772 80.1585 44.693H80.4072C79.8349 47.5519 78.2499 49.7465 75.0535 49.7465C71.7263 49.7465 69.2578 46.9453 69.2578 43.1914C69.2582 39.2929 71.9091 36.3476 74.9752 36.3476ZM74.9929 36.58C74.0216 36.5986 73.192 37.2659 73.192 39.3936V42.6359H76.7941V39.3936C76.7941 37.6468 76.3651 36.5619 74.9929 36.58ZM82.8514 49.9111C85.58 49.8524 88.2151 53.4397 88.2414 56.5578H81.0682L81.032 58.4007C81.032 60.3637 81.2558 62.8537 83.6718 62.8537C85.6994 62.8537 87.4033 61.1393 88.0338 58.256H88.2824C87.7111 61.115 86.1251 63.3096 82.9287 63.3096C79.6025 63.3096 77.133 60.5084 77.133 56.7545C77.1335 52.856 79.7843 49.9111 82.8514 49.9111ZM82.869 50.1436C81.8968 50.1622 81.0682 50.829 81.0682 52.9572V56.1994H84.6703V52.9572C84.6703 51.2098 84.2412 50.1259 82.869 50.1436ZM51.7981 57.4036V60.5126C51.7981 62.1822 50.728 63.2862 49.0723 63.2862C47.9268 63.2862 46.9842 62.6924 46.5255 61.504C45.8635 62.8623 44.1062 63.2862 43.1129 63.2862C41.1522 63.2862 39.1653 62.2963 39.1653 59.8344C39.1653 56.8905 41.6863 56.2118 44.004 56.0133L46.5002 55.7875V53.4097C46.5002 51.712 46.2091 50.4099 44.299 50.4099C43.4332 50.4099 41.8634 50.818 41.8887 51.4409C41.8915 51.4957 41.9125 51.5435 41.9469 51.5883L42.0018 51.5874C42.3238 51.5874 42.6401 51.6728 42.9183 51.8351C43.1965 51.9973 43.4267 52.2304 43.5853 52.5107C43.7439 52.791 43.8253 53.1083 43.8211 53.4303C43.8169 53.7523 43.7274 54.0675 43.5616 54.3435C43.3958 54.6196 43.1597 54.8467 42.8774 55.0017C42.5951 55.1567 42.2767 55.2339 41.9548 55.2256C41.6328 55.2173 41.3189 55.1236 41.045 54.9543C40.7711 54.7849 40.547 54.5459 40.3957 54.2616C40.2005 53.9457 40.1079 53.5495 40.1079 53.1271C40.1079 51.5425 41.9674 50.156 44.5142 50.156C47.1374 50.156 49.8622 50.9473 49.8622 54.1738V60.6826C49.8622 61.5598 49.9902 62.0977 50.4488 62.0977C51.0593 62.0977 51.4688 61.231 51.4688 60.4955L51.4807 60.4964V57.4041L51.7981 57.4036ZM46.5002 56.1135L44.4517 56.2672C42.7965 56.4657 42.68 57.711 42.68 59.2111C42.68 60.6821 42.7564 62.4366 44.4885 62.4366C45.685 62.4366 46.4492 61.0782 46.5002 59.5786V56.1135ZM74.4879 55.7049C75.5479 55.7049 76.4261 54.6625 76.4261 53.602C76.4265 53.4642 76.4118 53.3267 76.3822 53.192C76.2013 51.1206 74.0192 50.0935 72.3749 50.0935C68.9442 50.0935 65.9559 53.4431 65.9559 56.8509C65.9559 60.7193 68.7628 63.4919 72.1931 63.4919C74.8955 63.4919 76.8185 61.702 77.1048 59.0164H76.8194C76.6113 61.3952 74.7313 63.1907 72.4632 63.1907C70.8004 63.1907 69.8539 62.0767 69.8539 58.2369V54.9446C69.8539 51.7974 70.514 50.3946 72.4107 50.3946C73.6068 50.3946 75.0797 51.1507 75.0115 51.501C74.9852 51.6332 74.8401 51.7463 74.6435 51.8675C74.5917 51.8648 74.5398 51.8635 74.4879 51.8637C73.9859 51.8749 73.5083 52.0822 73.1572 52.4411C72.8062 52.8001 72.6096 53.2822 72.6096 53.7843C72.6096 54.2864 72.8062 54.7686 73.1572 55.1275C73.5083 55.4865 73.9859 55.6937 74.4879 55.7049ZM52.0372 62.8074H53.7412V51.0142H51.9131V50.6767H53.6171C55.0909 50.6767 56.2168 50.7306 57.148 50.6552V52.7787H57.1967C57.864 51.1034 59.4929 50.093 61.1472 50.093C63.4926 50.093 64.6281 51.4504 64.6281 54.5695V62.8074H66.332V63.1458H59.5221V62.8074H61.2207V53.5003C61.2207 51.4795 60.4805 50.8409 59.7645 50.8409C58.3823 50.8409 57.148 52.803 57.148 54.2759V62.8074H59.1875V63.1458H52.0368L52.0372 62.8074ZM24.7531 62.8074H26.5463V50.7411H24.7531V50.44H26.5983C27.6636 50.44 29.4854 50.4028 30.1875 50.3999L30.1326 52.7787H30.1846C30.8863 51.1034 32.6016 50.093 34.3423 50.093C36.8113 50.093 38.0069 51.4504 38.0069 54.5695V62.8074H39.5084V63.1458H32.9395V62.8074H34.421V53.5003C34.421 51.4795 33.4588 50.9507 32.7052 50.9507C31.2499 50.9507 30.2691 52.499 30.1326 54.3848V62.807H32.2494V63.1454H25.2094V63.2179H17.7446V62.8805H19.8294L19.8113 50.6304H17.7446L17.7632 50.3479L19.8089 50.3665C20.8747 50.3665 22.3032 50.3106 23.453 50.3078L23.4162 62.9167L24.7531 62.8895V62.8074ZM68.7733 47.5128C68.7714 49.4911 67.3687 49.9102 65.9926 49.9469C65.2657 49.9665 62.8793 49.3799 62.8793 46.6365V37.3962H60.8088V37.022C60.806 37.0215 62.8841 37.0215 62.8841 37.0215L62.8655 33.7402C62.8655 33.7402 65.1259 35.0527 66.4208 32.5732L66.5019 32.6004V37.022H68.8931L68.8568 37.3962H66.4656V47.2145C66.4656 48.1671 66.858 48.7069 67.5338 48.6611C67.5338 48.6611 68.3896 48.3972 68.3896 47.4307V44.2949H68.7719L68.7733 47.5128ZM4.40015 62.7339H7.00518V41.2966H4.40015L4.4369 40.9801L19.2466 40.962L19.2104 47.0469H18.7612V46.5382C18.7612 43.7747 16.9394 41.2971 13.4199 41.2971H11.191V51.8919H12.6133C14.6103 51.8919 15.7834 50.7173 15.7834 47.9218V47.3505H16.2326V57.1693H15.7834V56.597C15.7834 53.6435 14.785 52.2456 12.3393 52.2456H11.191V62.7349H13.9783V63.0881H4.40015V62.7339ZM55.4212 37.3661H57.086C58.0472 37.3661 59.492 37.3862 60.2762 37.3876V49.3327H62.4779V49.6405H57.0392V47.3538H56.9915C56.7053 48.1189 56.1931 48.7787 55.5229 49.2456C54.8527 49.7126 54.0563 49.9645 53.2395 49.9679C51.0106 49.9679 49.9319 48.6879 49.9319 45.7468V37.7475H47.1288V37.4029H49.9797C50.9409 37.4029 52.2367 37.3867 53.1689 37.3881V46.4274C53.1689 48.0345 53.4767 49.2062 54.6027 49.2062C55.9162 49.2062 57.0674 47.2307 57.0392 45.7578V37.7107H55.4207L55.4212 37.3661ZM21.446 49.0974C21.8494 49.0974 22.2363 48.9371 22.5216 48.6518C22.8068 48.3666 22.9671 47.9797 22.9671 47.5763C22.9671 47.1728 22.8068 46.7859 22.5216 46.5007C22.2363 46.2154 21.8494 46.0551 21.446 46.0551C21.243 46.0501 21.0411 46.0856 20.8521 46.1598C20.6631 46.234 20.4909 46.3452 20.3455 46.4869C20.2002 46.6287 20.0847 46.7981 20.0058 46.9852C19.9269 47.1723 19.8863 47.3732 19.8863 47.5763C19.8863 47.7793 19.9269 47.9803 20.0058 48.1673C20.0847 48.3544 20.2002 48.5238 20.3455 48.6656C20.4909 48.8073 20.6631 48.9186 20.8521 48.9927C21.0411 49.0669 21.243 49.1025 21.446 49.0974Z" fill="black"/>
</g>
</g>
<defs>
<clipPath id="clip0_20_3113">
<rect width="92" height="92" fill="white" transform="translate(0.341309 0.5)"/>
</clipPath>
</defs>
</svg>
