<svg width="37" height="37" viewBox="0 0 37 37" fill="none" xmlns="http://www.w3.org/2000/svg">
<g id="&#240;&#159;&#166;&#134; icon &#34;menu&#34;">
<path id="Vector" d="M6.64404 27.5H30.644C31.469 27.5 32.144 26.825 32.144 26C32.144 25.175 31.469 24.5 30.644 24.5H6.64404C5.81904 24.5 5.14404 25.175 5.14404 26C5.14404 26.825 5.81904 27.5 6.64404 27.5ZM6.64404 20H30.644C31.469 20 32.144 19.325 32.144 18.5C32.144 17.675 31.469 17 30.644 17H6.64404C5.81904 17 5.14404 17.675 5.14404 18.5C5.14404 19.325 5.81904 20 6.64404 20ZM5.14404 11C5.14404 11.825 5.81904 12.5 6.64404 12.5H30.644C31.469 12.5 32.144 11.825 32.144 11C32.144 10.175 31.469 9.5 30.644 9.5H6.64404C5.81904 9.5 5.14404 10.175 5.14404 11Z" fill="#F2F2F2"/>
</g>
</svg>
