<svg width="42" height="39" viewBox="0 0 42 39" fill="none" xmlns="http://www.w3.org/2000/svg">
<g id="Group 1">
<path id="Exclude" fill-rule="evenodd" clip-rule="evenodd" d="M38.9596 20.7647C38.9864 20.3466 39 19.9249 39 19.5C39 10.5012 32.9044 2.92602 24.617 0.678299C25.9156 0.238486 27.3071 0 28.7542 0C35.8731 0 41.6441 5.77097 41.6441 12.8898C41.6441 15.8552 40.6427 18.5868 38.9596 20.7647ZM38.9596 20.7647C38.308 30.9448 29.8447 39 19.5 39C8.73045 39 0 30.2696 0 19.5C0 8.73045 8.73045 0 19.5 0C21.2707 0 22.9863 0.236014 24.617 0.678299C19.5276 2.40201 15.8644 7.21813 15.8644 12.8898C15.8644 20.0087 21.6354 25.7797 28.7542 25.7797C32.9077 25.7797 36.6023 23.8152 38.9596 20.7647Z" fill="#6C40E9"/>
</g>
</svg>
