<svg width="67" height="65" viewBox="0 0 67 65" fill="none" xmlns="http://www.w3.org/2000/svg">
<g id="metal3-icon-black logo" clip-path="url(#clip0_20_3101)">
<g id="Layer 2">
<g id="Layer 1-2">
<path id="Vector" d="M65.9564 38.4173L65.9359 38.2482L60.6905 15.6783L60.654 15.5618C60.4992 15.0685 60.2916 14.5934 60.0346 14.1447L60.014 14.1105C59.7618 13.6852 59.4686 13.2856 59.1386 12.9174C58.5057 12.2067 57.7511 11.6146 56.9102 11.169L56.8531 11.1392L35.9951 1.16052L35.938 1.1331C35.0263 0.716101 34.0356 0.500181 33.0331 0.5H32.6331C31.9424 0.499895 31.2534 0.568031 30.5761 0.703414L30.1807 0.783408L9.05763 10.9678C8.10818 11.4119 7.27241 12.0665 6.61381 12.8819C5.95522 13.6973 5.49111 14.6521 5.25676 15.6738L1.85129 30.6213L0.132556 38.1636L0.118843 38.2367C0.0324946 38.7194 -0.00730424 39.2092 -6.03485e-06 39.6995V39.8138C0.0166554 40.2495 0.0701761 40.683 0.159983 41.1097V41.1257C0.182838 41.2285 0.207979 41.3291 0.23312 41.4296V41.4434C0.470957 42.3339 0.866519 43.1745 1.40104 43.9255L1.46046 44.01L10.157 54.7521L16.0217 62.0179L16.1474 62.1436C17.4411 63.4194 19.1207 64.2311 20.9242 64.452L21.1162 64.4771H21.1322L21.3608 64.4954H44.4608C45.0762 64.4954 45.6896 64.4257 46.2893 64.2874H46.3235C46.4355 64.26 46.5521 64.2303 46.6572 64.1983C48.0313 63.8049 49.2407 62.9765 50.1038 61.8373L64.5028 44.01L64.56 43.93C65.6976 42.3314 66.1958 40.3648 65.9564 38.4173ZM62.6835 42.3256L59.4838 46.2796L55.7674 50.869L47.928 60.562C47.4743 61.1836 46.8246 61.6344 46.0836 61.8419C46.0127 61.8648 45.9396 61.883 45.8664 61.9013C45.4917 61.9879 45.1082 62.0308 44.7237 62.0293H21.2556C21.1756 62.0293 21.1002 62.0042 21.0271 62.0042C19.9037 61.8676 18.8581 61.3601 18.0558 60.562L12.1568 53.2482L6.08642 45.7928L3.27747 42.3256C3.0721 42.0367 2.90178 41.7244 2.77008 41.3954C2.69754 41.2166 2.63647 41.0334 2.58724 40.8468L2.53924 40.6526C2.48654 40.4027 2.45519 40.1489 2.44553 39.8938V39.8595C2.43862 39.5623 2.4616 39.2652 2.5141 38.9727L4.26255 31.3069L7.31376 17.8908L7.7503 15.9755C7.87798 15.4121 8.13393 14.8857 8.49823 14.4374C8.86254 13.989 9.32537 13.6308 9.85072 13.3905L31.1681 3.10553C31.7434 2.99055 32.3302 2.94375 32.9165 2.96611H33.0079C33.5752 2.9627 34.1366 3.08199 34.6535 3.3158L55.9777 13.5276C56.4957 13.8032 56.9602 14.1693 57.349 14.6087C57.5452 14.8253 57.7191 15.0611 57.8679 15.3127C58.0124 15.5651 58.1289 15.8326 58.2153 16.1103L58.7615 18.453L63.5383 38.9681C63.684 40.1548 63.379 41.353 62.6835 42.3256Z" fill="black"/>
<path id="Vector_2" d="M30.2721 32.0795L30.0778 31.9767L14.1178 23.4424C14.0707 23.4165 14.0177 23.4034 13.964 23.4043C13.9102 23.4053 13.8577 23.4202 13.8115 23.4477C13.7653 23.4752 13.7271 23.5142 13.7007 23.561C13.6742 23.6078 13.6605 23.6607 13.6607 23.7144L13.5487 43.0639C13.5619 43.3016 13.6292 43.5331 13.7457 43.7407C13.8622 43.9483 14.0247 44.1264 14.2207 44.2615L30.4618 53.262C30.5416 53.306 30.6315 53.3285 30.7226 53.3272C30.8137 53.326 30.9029 53.3011 30.9815 53.255C31.0601 53.209 31.1253 53.1432 31.1708 53.0643C31.2164 52.9854 31.2406 52.896 31.2412 52.8049V33.7C31.2424 33.3673 31.1528 33.0405 30.982 32.755C30.8112 32.4694 30.5658 32.2359 30.2721 32.0795Z" fill="black"/>
<path id="Vector_3" d="M50.7095 19.9843L34.6924 13.0865C34.2678 12.9033 33.8096 12.8106 33.3472 12.8146C32.8848 12.8185 32.4283 12.9189 32.0068 13.1094L16.0926 20.2791C16.0384 20.3025 15.992 20.3408 15.9588 20.3896C15.9256 20.4383 15.9069 20.4955 15.905 20.5545C15.9031 20.6134 15.918 20.6717 15.9479 20.7225C15.9779 20.7733 16.0217 20.8146 16.0743 20.8414L32.1691 29.4465L32.224 29.4739L32.2925 29.5082L32.3245 29.5219L32.4205 29.5608C32.7128 29.6709 33.0251 29.7177 33.3368 29.698C33.6484 29.6783 33.9524 29.5926 34.2284 29.4465L50.7392 20.6791C50.8032 20.6447 50.8561 20.593 50.892 20.53C50.928 20.4669 50.9454 20.3949 50.9422 20.3224C50.9391 20.2499 50.9157 20.1797 50.8745 20.1199C50.8333 20.0601 50.7762 20.0131 50.7095 19.9843Z" fill="black"/>
<path id="Vector_4" d="M52.3963 23.3418C52.3168 23.3154 52.2322 23.3078 52.1493 23.3197C52.0664 23.3316 51.9874 23.3626 51.9186 23.4104L49.0136 25.0102C48.5849 25.2469 48.2556 25.6298 48.0857 26.089L43.6357 36.47L39.2109 30.9847C39.0204 30.7135 38.7119 30.6959 38.2853 30.9321L35.378 32.532C35.1833 32.6415 35.0197 32.7988 34.9026 32.9891C34.7829 33.1605 34.7154 33.363 34.7084 33.5719V53.3557C34.7084 53.5454 34.7724 53.6642 34.9026 53.7122C34.9831 53.7335 35.0673 53.7372 35.1493 53.723C35.2314 53.7088 35.3094 53.6771 35.378 53.6299L38.6258 51.8563C38.8184 51.75 38.9818 51.5977 39.1012 51.4129C39.2229 51.2477 39.2907 51.049 39.2955 50.8438V38.3922L42.0381 41.9645C42.1512 42.0868 42.305 42.1638 42.4707 42.1811C42.6364 42.1983 42.8028 42.1546 42.9386 42.0582L44.3283 41.2902C44.7419 41.0387 45.059 40.6556 45.2288 40.2023L48.008 33.5742L48.0377 45.0888L48.056 46.0739C48.0499 46.1445 48.066 46.2153 48.1021 46.2764C48.1381 46.3374 48.1923 46.3857 48.2571 46.4144C48.3329 46.4417 48.4142 46.4499 48.4939 46.4384C48.5737 46.4268 48.6493 46.3958 48.7142 46.3482L51.9437 44.4763C52.1312 44.3636 52.2881 44.2066 52.4008 44.0192C52.5176 43.8505 52.5813 43.6507 52.5837 43.4455V23.7098C52.5938 23.6366 52.5813 23.5621 52.5478 23.4964C52.5142 23.4306 52.4614 23.3766 52.3963 23.3418Z" fill="black"/>
</g>
</g>
</g>
<defs>
<clipPath id="clip0_20_3101">
<rect width="66.0159" height="64" fill="white" transform="translate(0 0.5)"/>
</clipPath>
</defs>
</svg>
