<svg width="256" height="117" viewBox="0 0 256 117" fill="none" xmlns="http://www.w3.org/2000/svg">
<g filter="url(#filter0_b_0_1)">
<rect width="246" height="117" rx="40" fill="#A681F2" fill-opacity="0.3"/>
</g>
<path d="M54.984 69.5L50.184 48.892H54.44L57.544 62.812L60.904 51.58V48.892H64.424L68.392 62.844L71.592 48.892H75.816L71.048 69.5H66.952L63.176 56.316L59.112 69.5H54.984ZM84.3218 69.82C81.6978 69.82 79.6178 69.1693 78.0818 67.868C76.5458 66.5453 75.7778 64.5507 75.7778 61.884C75.7778 59.4733 76.4178 57.564 77.6978 56.156C78.9991 54.7267 80.9298 54.012 83.4898 54.012C85.8364 54.012 87.6284 54.6307 88.8658 55.868C90.1244 57.084 90.7537 58.684 90.7537 60.668V63.42H79.7778C80.0124 64.636 80.5671 65.468 81.4418 65.916C82.3378 66.364 83.5964 66.588 85.2178 66.588C86.0284 66.588 86.8498 66.5133 87.6818 66.364C88.5351 66.2147 89.2604 66.0227 89.8578 65.788V68.86C89.1538 69.18 88.3324 69.4147 87.3938 69.564C86.4551 69.7347 85.4311 69.82 84.3218 69.82ZM79.7778 60.764H86.9778V59.932C86.9778 59.0573 86.7218 58.3747 86.2098 57.884C85.6978 57.372 84.8338 57.116 83.6178 57.116C82.1884 57.116 81.1858 57.404 80.6098 57.98C80.0551 58.556 79.7778 59.484 79.7778 60.764ZM102.69 69.82C101.623 69.82 100.695 69.6813 99.9055 69.404C99.1162 69.1053 98.3908 68.668 97.7295 68.092L97.5055 69.5H93.7615V47.932H98.0815V55.164C98.7002 54.78 99.3935 54.492 100.161 54.3C100.93 54.108 101.73 54.012 102.562 54.012C104.738 54.012 106.455 54.6307 107.714 55.868C108.994 57.084 109.634 59.0573 109.634 61.788C109.634 64.5187 109.004 66.5453 107.746 67.868C106.508 69.1693 104.823 69.82 102.69 69.82ZM101.474 66.652C102.86 66.652 103.831 66.2467 104.386 65.436C104.962 64.6253 105.25 63.4093 105.25 61.788C105.25 60.1027 104.94 58.9187 104.322 58.236C103.724 57.532 102.764 57.18 101.442 57.18C100.78 57.18 100.151 57.276 99.5535 57.468C98.9775 57.66 98.4868 57.9373 98.0815 58.3V65.276C98.5082 65.724 99.0095 66.0653 99.5855 66.3C100.183 66.5347 100.812 66.652 101.474 66.652ZM119.668 69.5V48.892H128.308C131.401 48.892 133.726 49.692 135.284 51.292C136.862 52.8707 137.652 55.5373 137.652 59.292C137.652 62.8333 136.873 65.4253 135.316 67.068C133.78 68.6893 131.444 69.5 128.308 69.5H119.668ZM123.988 66.172H127.7C128.916 66.172 129.94 65.9907 130.772 65.628C131.604 65.244 132.222 64.5613 132.628 63.58C133.054 62.5773 133.268 61.148 133.268 59.292C133.268 57.436 133.076 56.0173 132.692 55.036C132.308 54.0547 131.71 53.3827 130.9 53.02C130.089 52.6573 129.022 52.476 127.7 52.476H123.988V66.172ZM148.572 69.82C145.948 69.82 143.868 69.1693 142.332 67.868C140.796 66.5453 140.028 64.5507 140.028 61.884C140.028 59.4733 140.668 57.564 141.948 56.156C143.249 54.7267 145.18 54.012 147.74 54.012C150.086 54.012 151.878 54.6307 153.116 55.868C154.374 57.084 155.004 58.684 155.004 60.668V63.42H144.028C144.262 64.636 144.817 65.468 145.692 65.916C146.588 66.364 147.846 66.588 149.468 66.588C150.278 66.588 151.1 66.5133 151.932 66.364C152.785 66.2147 153.51 66.0227 154.108 65.788V68.86C153.404 69.18 152.582 69.4147 151.644 69.564C150.705 69.7347 149.681 69.82 148.572 69.82ZM144.028 60.764H151.228V59.932C151.228 59.0573 150.972 58.3747 150.46 57.884C149.948 57.372 149.084 57.116 147.868 57.116C146.438 57.116 145.436 57.404 144.86 57.98C144.305 58.556 144.028 59.484 144.028 60.764ZM163.199 69.82C162.069 69.82 160.991 69.7347 159.967 69.564C158.943 69.4147 158.122 69.2227 157.503 68.988V65.404C158.25 65.7027 159.093 65.9373 160.031 66.108C160.97 66.2573 161.834 66.332 162.623 66.332C163.69 66.332 164.437 66.268 164.863 66.14C165.311 66.012 165.535 65.724 165.535 65.276C165.535 64.764 165.194 64.3907 164.511 64.156C163.85 63.9213 162.858 63.5907 161.535 63.164C160.149 62.6947 159.082 62.1293 158.335 61.468C157.589 60.8067 157.215 59.8253 157.215 58.524C157.215 57.0733 157.738 55.964 158.783 55.196C159.85 54.4067 161.557 54.012 163.903 54.012C164.842 54.012 165.727 54.0867 166.559 54.236C167.391 54.364 168.095 54.524 168.671 54.716V58.268C168.095 57.9907 167.434 57.788 166.687 57.66C165.941 57.5107 165.247 57.436 164.607 57.436C163.69 57.436 162.954 57.5 162.399 57.628C161.866 57.756 161.599 58.0333 161.599 58.46C161.599 58.9293 161.887 59.26 162.463 59.452C163.061 59.644 163.978 59.932 165.215 60.316C166.431 60.6787 167.381 61.0733 168.063 61.5C168.746 61.9267 169.226 62.4387 169.503 63.036C169.781 63.612 169.919 64.3373 169.919 65.212C169.919 68.284 167.679 69.82 163.199 69.82ZM173.974 51.548V48.156H178.678V51.548H173.974ZM174.326 69.5V57.532H172.054L172.438 54.332H178.646V69.5H174.326ZM188.724 75.132C187.593 75.132 186.431 75.0573 185.236 74.908C184.063 74.7587 183.071 74.5453 182.26 74.268V71.036C183.113 71.3133 184.116 71.5267 185.268 71.676C186.42 71.8467 187.497 71.932 188.5 71.932C189.972 71.932 191.039 71.8467 191.7 71.676C192.361 71.5267 192.692 71.2493 192.692 70.844C192.692 70.5027 192.543 70.268 192.244 70.14C191.967 70.012 191.369 69.948 190.452 69.948H186.324C183.615 69.948 182.26 68.9453 182.26 66.94C182.26 66.3213 182.431 65.756 182.772 65.244C183.113 64.732 183.657 64.3267 184.404 64.028C182.676 63.1533 181.812 61.6813 181.812 59.612C181.812 57.6493 182.42 56.2307 183.636 55.356C184.852 54.46 186.655 54.012 189.044 54.012C189.535 54.012 190.068 54.0547 190.644 54.14C191.241 54.204 191.689 54.268 191.988 54.332H197.684L197.588 57.052H195.188C195.849 57.6707 196.18 58.5347 196.18 59.644C196.18 61.2013 195.689 62.4493 194.708 63.388C193.727 64.3053 192.276 64.764 190.356 64.764C190.015 64.764 189.684 64.7533 189.364 64.732C189.065 64.6893 188.756 64.6467 188.436 64.604C187.796 64.6893 187.252 64.8387 186.804 65.052C186.377 65.2653 186.164 65.5533 186.164 65.916C186.164 66.4067 186.601 66.652 187.476 66.652H191.764C193.3 66.652 194.484 67.004 195.316 67.708C196.148 68.3907 196.564 69.3933 196.564 70.716C196.564 72.2093 195.892 73.3187 194.548 74.044C193.204 74.7693 191.263 75.132 188.724 75.132ZM189.076 62.332C190.356 62.332 191.241 62.1187 191.732 61.692C192.244 61.244 192.5 60.4973 192.5 59.452C192.5 58.4067 192.244 57.6493 191.732 57.18C191.241 56.7107 190.356 56.476 189.076 56.476C187.86 56.476 186.985 56.7107 186.452 57.18C185.919 57.628 185.652 58.3853 185.652 59.452C185.652 60.4333 185.897 61.1587 186.388 61.628C186.9 62.0973 187.796 62.332 189.076 62.332ZM199.48 69.5V54.332H203.48L203.64 55.772C204.259 55.3027 205.038 54.8973 205.976 54.556C206.936 54.1933 207.939 54.012 208.984 54.012C210.99 54.012 212.451 54.4813 213.368 55.42C214.286 56.3587 214.744 57.8093 214.744 59.772V69.5H210.424V59.996C210.424 58.972 210.211 58.2467 209.784 57.82C209.379 57.3933 208.611 57.18 207.48 57.18C206.819 57.18 206.147 57.3293 205.464 57.628C204.803 57.9267 204.248 58.3 203.8 58.748V69.5H199.48Z" fill="#CFFF11"/>
<rect x="10.5" y="0.5" width="245" height="116" rx="39.5" stroke="url(#paint0_linear_0_1)"/>
<defs>
<filter id="filter0_b_0_1" x="-11" y="-11" width="268" height="139" filterUnits="userSpaceOnUse" color-interpolation-filters="sRGB">
<feFlood flood-opacity="0" result="BackgroundImageFix"/>
<feGaussianBlur in="BackgroundImageFix" stdDeviation="5.5"/>
<feComposite in2="SourceAlpha" operator="in" result="effect1_backgroundBlur_0_1"/>
<feBlend mode="normal" in="SourceGraphic" in2="effect1_backgroundBlur_0_1" result="shape"/>
</filter>
<linearGradient id="paint0_linear_0_1" x1="133" y1="0" x2="133" y2="130.112" gradientUnits="userSpaceOnUse">
<stop stop-color="#F2F2F2"/>
<stop offset="1" stop-color="#F2F2F2" stop-opacity="0"/>
</linearGradient>
</defs>
</svg>
